<svg width="15" height="15" viewBox="0 0 15 15" fill="none" xmlns="http://www.w3.org/2000/svg">
<path d="M9.07595 0.00759493L5.92557 0H5.92405C2.60203 0 0 2.60278 0 5.92557C0 9.03797 2.41975 11.3985 5.66962 11.523V14.4304C5.66962 14.5124 5.70304 14.6476 5.76076 14.7365C5.86861 14.9073 6.0524 15 6.24076 15C6.34557 15 6.45114 14.9711 6.54608 14.9104C6.74658 14.7828 11.4623 11.7661 12.6889 10.7286C14.1334 9.50582 14.9977 7.71342 15 5.93468V5.92177C14.9954 2.60506 12.3949 0.00835442 9.07595 0.00759493ZM11.9522 9.85975C11.0909 10.5889 8.25949 12.4458 6.80886 13.3861V10.9656C6.80886 10.6511 6.55443 10.3959 6.23924 10.3959H5.93848C3.15873 10.3959 1.14 8.51544 1.14 5.92557C1.14 3.24152 3.24228 1.13924 5.92481 1.13924L9.07443 1.14684H9.07595C11.7585 1.14684 13.8608 3.24759 13.8623 5.92861C13.86 7.37924 13.1461 8.8481 11.9522 9.85975Z" fill="#8A98A4"/>
</svg>
