<svg width="60" height="60" viewBox="0 0 60 60" fill="none" xmlns="http://www.w3.org/2000/svg">
<path d="M60 0H0V60H60V0Z" fill="#F5DE19"/>
<path d="M40.3047 46.8751C40.816 47.9135 41.6102 48.7863 42.5959 49.3929C43.5817 49.9995 44.7188 50.3152 45.8762 50.3036C48.2119 50.3036 49.7054 49.1358 49.7054 47.5179C49.7054 45.5894 48.1712 44.8994 45.5997 43.7744L44.1897 43.1701C40.1183 41.4365 37.4183 39.2658 37.4183 34.6758C37.4183 30.4479 40.6326 27.2272 45.6747 27.2272C47.307 27.1093 48.9378 27.4747 50.3637 28.2776C51.7897 29.0805 52.9477 30.2855 53.6933 31.7422L49.2854 34.5601C48.9983 33.8378 48.4985 33.2198 47.8521 32.7881C47.2057 32.3564 46.4434 32.1314 45.6662 32.1429C45.3271 32.109 44.9846 32.146 44.6607 32.2518C44.3367 32.3575 44.0383 32.5295 43.7845 32.7569C43.5307 32.9843 43.327 33.2621 43.1865 33.5725C43.046 33.883 42.9717 34.2193 42.9683 34.5601C42.9683 36.2508 44.0162 36.9365 46.4354 37.9886L47.8454 38.5929C52.6369 40.6479 55.3454 42.7415 55.3454 47.4494C55.3454 52.5258 51.3576 55.3072 46.0026 55.3072C43.9161 55.4402 41.8357 54.9664 40.0125 53.9432C38.1893 52.92 36.7011 51.391 35.7276 49.5408L40.3047 46.8751ZM20.3869 47.3636C21.2719 48.9344 22.0776 50.2629 24.0147 50.2629C25.8662 50.2629 27.0362 49.5386 27.0362 46.7208V27.5486H32.674V46.7958C32.674 52.6329 29.2454 55.2901 24.2547 55.2901C22.4906 55.3865 20.7386 54.9469 19.2291 54.029C17.7195 53.111 16.523 51.7578 15.7969 50.1472L20.3869 47.3636Z" fill="black"/>
</svg>
