<svg width="1512" height="1174" viewBox="0 0 1512 1174" fill="none" xmlns="http://www.w3.org/2000/svg">
<path opacity="0.0144928" d="M-222.351 203.832C-232.277 201.647 -242.371 205.944 -247.315 214.461L-413.165 500.17C-416.199 505.397 -416.937 511.637 -415.215 517.5L-283.463 966.019C-282.09 970.694 -279.232 974.853 -275.305 977.89L56.8488 1234.79C63.6983 1240.08 72.9093 1241.3 80.7693 1237.96L353.486 1121.84C361.346 1118.5 366.56 1111.13 367.026 1102.72L389.645 694.774C389.913 689.952 388.593 685.138 385.879 681.033L125.491 287.284C122.086 282.136 116.743 278.485 110.652 277.144L-222.351 203.832Z" stroke="url(#paint0_linear_173_3909)" stroke-opacity="0.2" stroke-width="4"/>
<path opacity="0.0289855" d="M-170.322 191.97C-180.063 189.321 -190.297 193.078 -195.682 201.279L-376.137 476.087C-379.469 481.162 -380.556 487.379 -379.153 493.348L-273.354 943.646C-272.232 948.421 -269.583 952.75 -265.798 955.997L49.4718 1226.39C56.0187 1232.01 65.1165 1233.68 73.1148 1230.74L350.251 1129.01C358.249 1126.08 363.838 1119.01 364.774 1110.65L409.868 707.969C410.409 703.134 409.348 698.221 406.841 693.955L170.387 291.619C167.253 286.286 162.095 282.36 156.068 280.721L-170.322 191.97Z" stroke="url(#paint1_linear_173_3909)" stroke-opacity="0.2" stroke-width="4"/>
<path opacity="0.0434783" d="M-118.261 181.705C-127.795 178.605 -138.145 181.82 -143.953 189.688L-338.272 452.917C-341.893 457.823 -343.328 463.999 -342.252 470.055L-262.234 920.783C-261.371 925.642 -258.944 930.13 -255.313 933.579L42.5136 1216.49C48.7421 1222.41 57.7042 1224.53 65.82 1222.01L346.544 1134.78C354.66 1132.26 360.607 1125.51 362.009 1117.22L429.062 720.931C429.88 716.099 429.085 711.104 426.796 706.688L214.494 297.063C211.641 291.559 206.685 287.369 200.739 285.436L-118.261 181.705Z" stroke="url(#paint2_linear_173_3909)" stroke-opacity="0.2" stroke-width="4"/>
<path opacity="0.057971" d="M-66.2624 173.024C-75.5705 169.484 -86.0104 172.159 -92.2207 179.675L-299.629 430.693C-303.53 435.415 -305.311 441.529 -304.57 447.654L-250.085 897.484C-249.488 902.412 -247.293 907.047 -243.829 910.69L36.0548 1205.13C41.9499 1211.34 50.7551 1213.89 58.9678 1211.79L342.445 1139.15C350.658 1137.05 356.947 1130.62 358.809 1122.43L447.246 733.61C448.341 728.799 447.819 723.735 445.759 719.182L257.75 303.566C255.19 297.907 250.451 293.463 244.603 291.24L-66.2624 173.024Z" stroke="url(#paint3_linear_173_3909)" stroke-opacity="0.2" stroke-width="4"/>
<path opacity="0.0724638" d="M-14.4122 165.909C-23.4761 161.943 -33.9818 164.078 -40.575 171.227L-260.267 409.446C-264.437 413.968 -266.562 420.001 -266.158 426.176L-236.887 873.808C-236.561 878.789 -234.608 883.556 -231.325 887.385L30.1784 1192.35C35.7263 1198.82 44.354 1201.8 52.6433 1200.11L338.04 1142.1C346.329 1140.42 352.942 1134.34 355.259 1126.27L464.447 745.958C465.818 741.183 465.574 736.068 463.753 731.391L300.104 311.074C297.847 305.276 293.34 300.59 287.607 298.081L-14.4122 165.909Z" stroke="url(#paint4_linear_173_3909)" stroke-opacity="0.2" stroke-width="4"/>
<path opacity="0.0869565" d="M37.1985 160.34C28.3966 155.959 17.8488 157.557 10.8931 164.324L-220.248 389.202C-224.676 393.51 -227.139 399.443 -227.077 405.648L-222.628 849.811C-222.578 854.83 -220.877 859.715 -217.786 863.72L24.9599 1178.18C30.1476 1184.9 38.5781 1188.3 46.9238 1187.03L333.409 1143.64C341.754 1142.38 348.674 1136.65 351.436 1128.73L480.687 757.927C482.333 753.206 482.372 748.056 480.798 743.269L341.503 319.53C339.557 313.61 335.297 308.696 329.694 305.907L37.1985 160.34Z" stroke="url(#paint5_linear_173_3909)" stroke-opacity="0.2" stroke-width="4"/>
<path opacity="0.101449" d="M88.4864 156.288C79.9632 151.507 69.3964 152.569 62.0989 158.94L-179.631 369.986C-184.303 374.066 -187.101 379.879 -187.382 386.094L-207.294 825.552C-207.523 830.591 -206.082 835.58 -203.195 839.748L20.4765 1162.67C25.2919 1169.63 33.5064 1173.43 41.8884 1172.59L328.635 1143.76C337.017 1142.92 344.226 1137.57 347.424 1129.81L496 769.472C497.918 764.82 498.242 759.654 496.923 754.771L381.902 328.875C380.276 322.851 376.276 317.722 370.818 314.66L88.4864 156.288Z" stroke="url(#paint6_linear_173_3909)" stroke-opacity="0.2" stroke-width="4"/>
<path opacity="0.115942" d="M139.363 153.723C131.134 148.555 120.571 149.085 112.953 155.047L-138.482 351.818C-143.387 355.657 -146.511 361.33 -147.137 367.536L-190.884 801.09C-191.393 806.131 -190.219 811.207 -187.547 815.528L16.7946 1145.89C21.2269 1153.05 29.2071 1157.25 37.6056 1156.82L323.797 1142.48C332.196 1142.06 339.673 1137.09 343.298 1129.52L510.41 780.549C512.596 775.984 513.208 770.819 512.151 765.856L421.254 339.05C419.953 332.94 416.226 327.611 410.929 324.284L139.363 153.723Z" stroke="url(#paint7_linear_173_3909)" stroke-opacity="0.2" stroke-width="4"/>
<path opacity="0.130435" d="M189.751 152.61C181.833 147.069 171.296 147.069 163.378 152.61L-96.8604 334.715C-101.983 338.3 -105.425 343.815 -106.395 349.991L-173.387 776.481C-174.176 781.508 -173.277 786.655 -170.828 791.116L13.9872 1127.87C18.0265 1135.23 25.7549 1139.8 34.1502 1139.8L318.979 1139.8C327.374 1139.8 335.103 1135.23 339.142 1127.87L523.958 791.116L525.711 792.078L523.958 791.116C526.406 786.655 527.306 781.508 526.516 776.481L459.525 349.991C458.555 343.815 455.112 338.3 449.99 334.715L189.751 152.61Z" stroke="url(#paint8_linear_173_3909)" stroke-opacity="0.2" stroke-width="4"/>
<path opacity="0.144928" d="M239.568 152.909C231.975 147.01 221.486 146.484 213.289 151.592L-54.8339 318.69C-60.1588 322.009 -63.9102 327.347 -65.2223 333.474L-154.808 751.783C-155.878 756.778 -155.257 761.979 -153.042 766.567L12.1123 1108.68C15.7497 1116.21 23.2096 1121.15 31.5823 1121.57L314.255 1135.74C322.628 1136.16 330.587 1131.99 335.028 1124.86L536.672 801.134C539.376 796.792 540.563 791.682 540.045 786.607L496.673 361.634C496.038 355.41 492.89 349.726 487.957 345.894L239.568 152.909Z" stroke="url(#paint9_linear_173_3909)" stroke-opacity="0.2" stroke-width="4"/>
<path opacity="0.15942" d="M288.739 154.577C281.486 148.334 271.067 147.286 262.614 151.951L-12.4624 303.753C-17.9743 306.795 -22.024 311.939 -23.6745 317.996L-135.148 727.054C-136.495 731.999 -136.156 737.237 -134.183 741.938L11.2339 1088.38C14.4616 1096.07 21.637 1101.36 29.9675 1102.2L309.706 1130.31C318.036 1131.15 326.206 1127.4 331.035 1120.52L548.594 810.565C551.546 806.359 553.017 801.303 552.774 796.198L532.672 373.915C532.374 367.662 529.531 361.825 524.801 357.754L288.739 154.577Z" stroke="url(#paint10_linear_173_3909)" stroke-opacity="0.2" stroke-width="4"/>
<path opacity="0.173913" d="M337.192 157.566C330.292 150.995 319.964 149.43 311.278 153.641L30.1893 289.912C24.5064 292.667 20.1703 297.6 18.1862 303.567L-114.412 702.35C-116.035 707.229 -115.979 712.487 -114.254 717.287L11.4062 1067.03C14.2175 1074.85 21.0929 1080.48 29.3617 1081.73L305.406 1123.55C313.675 1124.8 322.034 1121.47 327.236 1114.86L559.761 819.375C562.952 815.319 564.704 810.335 564.738 805.216L567.492 386.766C567.533 380.505 565.003 374.532 560.489 370.232L337.192 157.566Z" stroke="url(#paint11_linear_173_3909)" stroke-opacity="0.2" stroke-width="4"/>
<path opacity="0.188406" d="M384.854 161.826C378.32 154.941 368.106 152.865 359.209 156.613L73.0558 277.168C67.2188 279.627 62.6093 284.333 60.2976 290.191L-92.6134 677.727C-94.5056 682.522 -94.735 687.782 -93.265 692.667L12.6788 1044.69C15.068 1052.63 21.6287 1058.59 29.8166 1060.25L301.428 1115.46C309.615 1117.13 318.142 1114.24 323.702 1107.91L570.212 827.53C573.632 823.639 575.66 818.745 575.971 813.628L601.108 400.12C601.488 393.869 599.279 387.778 594.992 383.261L384.854 161.826Z" stroke="url(#paint12_linear_173_3909)" stroke-opacity="0.2" stroke-width="4"/>
<path opacity="0.202899" d="M431.663 167.302C425.509 160.12 415.429 157.538 406.344 160.815L116.078 265.523C110.105 267.678 105.236 272.14 102.604 277.872L-69.7595 653.239C-71.9158 657.935 -72.4298 663.18 -71.2193 668.135L15.1029 1021.45C17.0655 1029.48 23.2973 1035.74 31.3847 1037.82L297.846 1106.09C305.933 1108.17 314.606 1105.72 320.506 1099.7L579.992 835C583.631 831.288 585.928 826.5 586.516 821.402L633.506 413.91C634.224 407.688 632.34 401.495 628.294 396.773L431.663 167.302Z" stroke="url(#paint13_linear_173_3909)" stroke-opacity="0.2" stroke-width="4"/>
<path opacity="0.217391" d="M477.55 173.938C471.788 166.475 461.865 163.392 452.616 166.19L159.188 254.973C153.095 256.817 147.982 261.021 145.038 266.608L-45.8721 628.94C-48.2855 633.52 -49.0827 638.734 -48.1355 643.744L18.7153 997.353C20.2478 1005.46 26.1371 1012.02 34.1048 1014.5L294.724 1095.47C302.692 1097.95 311.488 1095.95 317.711 1090.26L589.14 841.757C592.985 838.237 595.545 833.571 596.408 828.509L664.665 428.066C665.717 421.891 664.164 415.616 660.368 410.699L477.55 173.938Z" stroke="url(#paint14_linear_173_3909)" stroke-opacity="0.2" stroke-width="4"/>
<path opacity="0.231884" d="M522.465 181.672C517.106 173.945 507.363 170.368 497.974 172.681L202.332 245.512C196.138 247.037 190.796 250.971 187.55 256.395L-20.9623 604.883C-23.6249 609.333 -24.7024 614.498 -24.0216 619.548L23.5616 972.488C24.6616 980.647 30.1953 987.485 38.0239 990.358L292.137 1083.64C299.965 1086.51 308.862 1084.97 315.388 1079.61L597.705 847.776C601.745 844.459 604.559 839.931 605.694 834.92L694.579 442.519C695.963 436.411 694.745 430.07 691.21 424.973L522.465 181.672Z" stroke="url(#paint15_linear_173_3909)" stroke-opacity="0.2" stroke-width="4"/>
<path opacity="0.246377" d="M566.348 190.441C561.404 182.468 551.862 178.405 542.358 180.227L245.443 237.129C239.166 238.332 233.612 241.982 230.075 247.227L4.94412 581.118C2.04117 585.423 0.687035 590.524 1.09978 595.6L29.6709 946.923C30.337 955.114 35.5027 962.213 43.1727 965.479L290.142 1070.63C297.812 1073.9 306.786 1072.82 313.597 1067.81L605.73 853.034C609.951 849.931 613.009 845.555 614.412 840.611L723.239 457.202C724.949 451.178 724.068 444.789 720.803 439.523L566.348 190.441Z" stroke="url(#paint16_linear_173_3909)" stroke-opacity="0.2" stroke-width="4"/>
<path opacity="0.26087" d="M609.149 200.179C604.631 191.978 595.314 187.438 585.72 188.763L288.464 229.813C282.123 230.689 276.374 234.043 272.557 239.095L31.8238 557.695C28.6903 561.842 27.0644 566.864 27.2083 571.95L37.0729 920.733C37.3049 928.934 42.0908 936.278 49.5828 939.929L288.804 1056.49C296.296 1060.14 305.322 1059.53 312.396 1054.89L613.261 857.509C617.649 854.63 620.942 850.421 622.608 845.559L750.642 472.045C752.672 466.123 752.13 459.703 749.144 454.283L609.149 200.179Z" stroke="url(#paint17_linear_173_3909)" stroke-opacity="0.2" stroke-width="4"/>
<path opacity="0.275362" d="M650.823 210.82C646.741 202.409 637.672 197.402 628.014 198.226L331.336 223.548C324.95 224.093 319.024 227.143 314.939 231.985L59.6509 534.663C56.2972 538.639 54.4053 543.566 54.2803 548.649L45.7928 893.993C45.5914 902.184 49.9863 909.755 57.2809 913.783L288.179 1041.27C295.474 1045.29 304.527 1045.15 311.845 1040.88L620.346 861.184C624.887 858.539 628.403 854.508 630.327 849.743L776.789 486.98C779.132 481.177 778.93 474.744 776.231 469.182L650.823 210.82Z" stroke="url(#paint18_linear_173_3909)" stroke-opacity="0.2" stroke-width="4"/>
<path opacity="0.289855" d="M691.328 222.292C687.691 213.692 678.892 208.228 669.197 208.548L374.002 218.316C367.589 218.528 361.504 221.263 357.165 225.882L88.3946 512.066C84.8317 515.86 82.6802 520.679 82.2875 525.744L55.8482 866.779C55.2155 874.94 59.2086 882.719 66.2865 887.115L288.321 1025C295.399 1029.4 304.455 1029.72 311.994 1025.85L627.029 864.043C631.709 861.64 635.437 857.8 637.612 853.144L801.684 501.94C804.332 496.271 804.469 489.842 802.064 484.153L691.328 222.292Z" stroke="url(#paint19_linear_173_3909)" stroke-opacity="0.2" stroke-width="4"/>
<path opacity="0.304348" d="M730.629 234.524C727.447 225.755 718.942 219.845 709.237 219.661L416.409 214.094C409.989 213.972 403.763 216.385 399.184 220.769L118.027 489.95C114.267 493.551 111.863 498.248 111.204 503.283L67.2581 839.168C66.197 847.278 69.7785 855.248 76.6206 860.001L289.286 1007.76C296.128 1012.51 305.161 1013.31 312.899 1009.84L633.364 866.074C638.167 863.919 642.096 860.281 644.514 855.748L825.339 516.857C828.284 511.337 828.759 504.929 826.654 499.128L730.629 234.524Z" stroke="url(#paint20_linear_173_3909)" stroke-opacity="0.2" stroke-width="4"/>
<path opacity="0.318841" d="M768.692 247.443C765.972 238.526 757.784 232.185 748.097 231.495L458.501 210.86C452.093 210.404 445.745 212.487 440.94 216.624L148.512 468.358C144.565 471.755 141.917 476.318 140.995 481.308L80.0288 811.236C78.5434 819.275 81.704 827.416 88.2911 832.517L291.117 989.584C297.704 994.685 306.688 995.949 314.601 992.888L639.393 867.265C644.306 865.365 648.422 861.939 651.077 857.541L847.764 531.666C850.996 526.311 851.807 519.94 850.008 514.04L768.692 247.443Z" stroke="url(#paint21_linear_173_3909)" stroke-opacity="0.2" stroke-width="4"/>
<path opacity="0.333333" d="M805.491 260.975C803.241 251.931 795.393 245.174 785.752 243.979L500.23 208.588C493.852 207.797 487.401 209.545 482.385 213.423L179.815 447.329C175.695 450.514 172.81 454.931 171.628 459.864L94.1696 783.062C92.265 791.009 94.9964 799.3 101.31 804.736L293.862 970.534C300.176 975.97 309.084 977.701 317.149 975.059L645.169 867.609C650.177 865.968 654.468 862.763 657.35 858.512L868.979 546.301C872.488 541.124 873.631 534.807 872.142 528.824L805.491 260.975Z" stroke="url(#paint22_linear_173_3909)" stroke-opacity="0.2" stroke-width="4"/>
<path opacity="0.347826" d="M841.003 275.044C839.228 265.897 831.744 258.74 822.178 257.042L541.543 207.247C535.214 206.124 528.681 207.532 523.467 211.142L211.898 426.902C207.616 429.867 204.504 434.126 203.065 438.991L109.679 754.72C107.362 762.555 109.656 770.976 115.677 776.734L297.56 950.668C303.581 956.426 312.388 958.62 320.581 956.404L650.739 867.1C655.826 865.724 660.28 862.748 663.381 858.653L889.001 560.701C892.776 555.715 894.248 549.467 893.074 543.414L841.003 275.044Z" stroke="url(#paint23_linear_173_3909)" stroke-opacity="0.2" stroke-width="4"/>
<path opacity="0.362319" d="M875.21 289.576C873.915 280.347 866.817 272.809 857.356 270.613L582.395 206.808C576.134 205.355 569.536 206.419 564.14 209.753L244.72 407.113C240.289 409.851 236.959 413.943 235.268 418.727L126.554 726.286C123.831 733.99 125.682 742.521 131.393 748.586L302.247 930.046C307.958 936.111 316.636 938.763 324.933 936.979L656.149 865.735C661.302 864.626 665.905 861.887 669.216 857.959L907.854 574.802C911.884 570.019 913.681 563.855 912.825 557.749L875.21 289.576Z" stroke="url(#paint24_linear_173_3909)" stroke-opacity="0.2" stroke-width="4"/>
<path opacity="0.376812" d="M908.098 304.493C907.288 295.208 900.599 287.308 891.27 284.62L622.739 207.236C616.564 205.457 609.921 206.175 604.36 209.224L278.241 387.997C273.673 390.501 270.133 394.416 268.195 399.108L144.787 697.836C141.666 705.39 143.067 714.007 148.45 720.364L307.956 908.729C313.339 915.086 321.862 918.188 330.237 916.84L661.449 863.513C666.652 862.675 671.392 860.178 674.904 856.426L925.565 588.544C929.84 583.976 931.956 577.912 931.419 571.766L908.098 304.493Z" stroke="url(#paint25_linear_173_3909)" stroke-opacity="0.2" stroke-width="4"/>
<path opacity="0.391304" d="M939.659 319.719C939.336 310.403 933.076 302.164 923.911 298.991L662.532 208.497C656.461 206.396 649.792 206.766 644.08 209.523L312.416 369.584C307.723 371.848 303.984 375.577 301.803 380.168L164.363 669.443C160.854 676.828 161.801 685.51 166.84 692.142L314.715 886.779C319.753 893.41 328.095 896.955 336.523 896.046L666.685 860.436C671.924 859.871 676.789 857.623 680.491 854.054L942.165 601.87C946.671 597.527 949.101 591.576 948.886 585.406L939.659 319.719Z" stroke="url(#paint26_linear_173_3909)" stroke-opacity="0.2" stroke-width="4"/>
<path opacity="0.405797" d="M969.893 335.18C970.057 325.857 964.248 317.303 955.276 313.654L701.736 210.554C695.789 208.136 689.112 208.158 683.266 210.616L347.204 351.904C342.398 353.924 338.469 357.459 336.051 361.937L185.269 641.181C181.383 648.378 181.872 657.102 186.55 663.989L322.551 864.26C327.228 871.147 335.363 875.124 343.819 874.656L671.908 856.509C677.169 856.218 682.144 854.223 686.029 850.846L957.69 614.723C962.415 610.615 965.152 604.791 965.261 598.612L969.893 335.18Z" stroke="url(#paint27_linear_173_3909)" stroke-opacity="0.2" stroke-width="4"/>
<path opacity="0.42029" d="M998.796 350.8C999.447 341.496 994.107 332.652 985.357 328.539L740.31 213.367C734.502 210.638 727.837 210.312 721.872 212.466L382.552 334.983C377.647 336.754 373.536 340.088 370.887 344.444L207.479 613.119C203.226 620.111 203.256 628.853 207.557 635.977L331.479 841.236C335.781 848.36 343.682 852.756 352.14 852.73L677.158 851.737C682.427 851.72 687.501 849.983 691.558 846.806L972.17 627.049C977.103 623.185 980.141 617.502 980.573 611.328L998.796 350.8Z" stroke="url(#paint28_linear_173_3909)" stroke-opacity="0.2" stroke-width="4"/>
<path opacity="0.434783" d="M1026.38 366.504C1027.52 357.245 1022.66 348.14 1014.16 343.576L778.224 216.897C772.574 213.863 765.938 213.19 759.87 215.035L418.422 318.846C413.429 320.365 409.146 323.49 406.272 327.714L230.974 585.327C226.367 592.097 225.937 600.832 229.848 608.173L341.524 817.771C345.435 825.112 353.079 829.913 361.513 830.328L682.489 846.129C687.752 846.388 692.913 844.912 697.133 841.941L985.654 638.795C990.782 635.185 994.113 629.655 994.868 623.501L1026.38 366.504Z" stroke="url(#paint29_linear_173_3909)" stroke-opacity="0.2" stroke-width="4"/>
<path opacity="0.449275" d="M1052.65 382.219C1054.27 373.032 1049.92 363.694 1041.7 358.695L815.442 221.1C809.966 217.771 803.378 216.753 797.222 218.285L454.76 303.515C449.689 304.777 445.245 307.687 442.151 311.772L255.72 557.873C250.773 564.403 249.882 573.109 253.39 580.644L352.692 793.931C356.2 801.466 363.561 806.658 371.946 807.512L687.94 839.696C693.184 840.23 698.42 839.019 702.793 836.26L998.178 649.914C1003.49 646.564 1007.11 641.201 1008.18 635.081L1052.65 382.219Z" stroke="url(#paint30_linear_173_3909)" stroke-opacity="0.2" stroke-width="4"/>
<path opacity="0.463768" d="M1077.63 397.874C1079.72 388.785 1075.89 379.244 1067.97 373.828L851.933 225.935C846.649 222.318 840.126 220.957 833.897 222.173L491.516 289.008C486.381 290.011 481.783 292.7 478.476 296.636L281.685 530.821C276.411 537.096 275.062 545.747 278.156 553.453L364.991 769.78C368.084 777.486 375.139 783.052 383.45 784.341L693.556 832.451C698.768 833.259 704.066 832.316 708.584 829.775L1009.79 660.358C1015.27 657.275 1019.16 652.091 1020.56 646.021L1077.63 397.874Z" stroke="url(#paint31_linear_173_3909)" stroke-opacity="0.2" stroke-width="4"/>
<path opacity="0.478261" d="M1101.32 413.398C1103.88 404.433 1100.58 394.723 1093 388.908L887.674 231.357C882.596 227.461 876.157 225.762 869.872 226.658L528.643 275.342C523.454 276.082 518.713 278.544 515.198 282.324L308.834 504.234C303.249 510.24 301.445 518.81 304.114 526.664L378.427 745.383C381.096 753.237 387.823 759.157 396.033 760.876L699.382 824.409C704.548 825.491 709.897 824.817 714.551 822.5L1020.53 670.082C1026.17 667.275 1030.33 662.281 1032.05 656.275L1101.32 413.398Z" stroke="url(#paint32_linear_173_3909)" stroke-opacity="0.2" stroke-width="4"/>
<path opacity="0.492754" d="M1123.77 428.723C1126.78 419.908 1124.02 410.063 1116.8 403.87L922.637 237.32C917.782 233.156 911.444 231.122 905.117 231.697L566.088 262.53C560.857 263.006 555.981 265.235 552.265 268.85L337.124 478.172C331.244 483.893 328.991 492.359 331.226 500.336L393 720.804C395.235 728.78 401.613 735.035 409.696 737.178L705.458 815.587C710.566 816.941 715.955 816.54 720.734 814.451L1030.46 679.047C1036.24 676.52 1040.67 671.728 1042.69 665.8L1123.77 428.723Z" stroke="url(#paint33_linear_173_3909)" stroke-opacity="0.2" stroke-width="4"/>
<path opacity="0.507246" d="M1144.99 443.783C1148.45 435.144 1146.24 425.197 1139.4 418.651L956.805 243.779C952.188 239.357 945.968 236.993 939.615 237.246L603.803 250.583C598.54 250.792 593.539 252.784 589.628 256.227L366.516 452.693C360.357 458.116 357.662 466.453 359.456 474.527L408.707 696.106C410.501 704.18 416.51 710.748 424.443 713.306L711.828 806.005C716.864 807.629 722.281 807.503 727.177 805.647L1039.63 687.214C1045.54 684.973 1050.22 680.395 1052.55 674.559L1144.99 443.783Z" stroke="url(#paint34_linear_173_3909)" stroke-opacity="0.2" stroke-width="4"/>
<path opacity="0.521739" d="M1165.01 458.514C1168.9 450.076 1167.24 440.063 1160.81 433.188L990.155 250.687C985.79 246.02 979.705 243.331 973.341 243.259L641.73 239.51C636.448 239.45 631.329 241.199 627.231 244.463L396.958 427.85C390.538 432.962 387.408 441.145 388.757 449.291L425.536 671.351C426.885 679.497 432.506 686.354 440.263 689.32L718.526 795.683C723.478 797.576 728.911 797.726 733.915 796.108L1048.08 694.548C1054.11 692.599 1059.03 688.244 1061.68 682.515L1165.01 458.514Z" stroke="url(#paint35_linear_173_3909)" stroke-opacity="0.2" stroke-width="4"/>
<path opacity="0.536232" d="M1183.87 472.855C1188.18 464.641 1187.08 454.599 1181.07 447.421L1022.67 257.997C1018.58 253.096 1012.64 250.089 1006.28 249.692L679.822 229.315C674.532 228.985 669.306 230.485 665.025 233.563L428.405 403.695C421.742 408.485 418.188 416.49 419.088 424.68L443.479 646.601C444.379 654.791 449.596 661.915 457.154 665.276L725.593 784.644C730.449 786.803 735.887 787.231 740.99 785.856L1055.89 701.016C1062.02 699.364 1067.17 695.243 1070.11 689.634L1183.87 472.855Z" stroke="url(#paint36_linear_173_3909)" stroke-opacity="0.2" stroke-width="4"/>
<path opacity="0.550725" d="M1201.61 486.747C1206.32 478.781 1205.77 468.745 1200.21 461.293L1054.35 265.661C1050.53 260.539 1044.76 257.222 1038.43 256.5L718.026 220.002C712.738 219.4 707.413 220.647 702.957 223.531L460.801 380.276C453.914 384.733 449.948 392.537 450.398 400.745L462.519 621.916C462.969 630.124 467.766 637.488 475.102 641.233L733.065 772.913C737.811 775.336 743.243 776.044 748.437 774.916L1063.09 706.591C1069.32 705.24 1074.69 701.364 1077.93 695.889L1201.61 486.747Z" stroke="url(#paint37_linear_173_3909)" stroke-opacity="0.2" stroke-width="4"/>
<path opacity="0.565217" d="M1218.26 500.135C1223.36 492.439 1223.36 482.444 1218.26 474.748L1085.17 273.632C1081.64 268.304 1076.06 264.682 1069.76 263.636L756.289 211.571C751.015 210.695 745.6 211.683 740.976 214.367L494.094 357.638C487.003 361.753 482.638 369.332 482.638 377.53L482.638 597.352C482.638 605.551 487.003 613.13 494.094 617.245L740.976 760.516C745.6 763.2 751.015 764.188 756.289 763.312L1069.76 711.247C1076.06 710.201 1081.64 706.579 1085.17 701.251L1218.26 500.135Z" stroke="url(#paint38_linear_173_3909)" stroke-opacity="0.2" stroke-width="4"/>
<path opacity="0.57971" d="M1233.88 512.965C1239.34 505.56 1239.88 495.643 1235.27 487.733L1115.13 281.861C1111.91 276.341 1106.53 272.425 1100.27 271.054L794.561 204.017C789.313 202.866 783.818 203.592 779.032 206.068L528.228 335.821C520.952 339.586 516.204 346.918 515.757 355.081L503.816 572.968C503.368 581.131 507.289 588.897 514.113 593.368L749.361 747.481C753.85 750.422 759.235 751.693 764.581 751.073L1075.95 714.963C1082.31 714.224 1088.1 710.867 1091.9 705.7L1233.88 512.965Z" stroke="url(#paint39_linear_173_3909)" stroke-opacity="0.2" stroke-width="4"/>
<path opacity="0.594203" d="M1248.51 525.188C1254.31 518.093 1255.39 508.288 1251.26 500.196L1144.23 290.303C1141.32 284.606 1136.15 280.403 1129.97 278.709L832.791 197.337C827.579 195.91 822.013 196.368 817.073 198.629L563.142 314.865C555.702 318.271 550.587 325.335 549.697 333.436L526.025 548.815C525.135 556.916 528.602 564.843 535.139 569.653L758.249 733.837C762.59 737.032 767.935 738.586 773.343 738.226L1081.72 717.719C1088.14 717.292 1094.11 714.208 1098.19 709.214L1248.51 525.188Z" stroke="url(#paint40_linear_173_3909)" stroke-opacity="0.2" stroke-width="4"/>
<path opacity="0.608696" d="M1262.2 536.757C1268.31 529.99 1269.91 520.332 1266.29 512.089L1172.46 298.908C1169.88 293.051 1164.94 288.571 1158.84 286.557L870.929 191.521C865.766 189.817 860.139 190.002 855.051 192.042L598.778 294.803C591.194 297.844 585.731 304.62 584.404 312.632L549.24 524.948C547.913 532.96 550.919 541.019 557.149 546.152L767.673 719.615C771.852 723.059 777.144 724.898 782.605 724.803L1087.14 719.5C1093.59 719.388 1099.74 716.587 1104.08 711.778L1262.2 536.757Z" stroke="url(#paint41_linear_173_3909)" stroke-opacity="0.2" stroke-width="4"/>
<path opacity="0.623188" d="M1275 547.63C1281.4 541.208 1283.51 531.727 1280.39 523.367L1199.83 307.632C1197.59 301.63 1192.89 296.883 1186.89 294.551L908.921 186.56C903.82 184.578 898.142 184.484 892.914 186.296L635.07 275.665C627.364 278.336 621.572 284.806 619.817 292.704L573.426 501.415C571.671 509.313 574.21 517.477 580.114 522.914L777.655 704.847C781.66 708.536 786.887 710.659 792.391 710.833L1092.26 720.296C1098.73 720.501 1105.04 717.991 1109.64 713.38L1275 547.63Z" stroke="url(#paint42_linear_173_3909)" stroke-opacity="0.2" stroke-width="4"/>
<path opacity="0.637681" d="M1286.96 557.768C1293.63 551.703 1296.23 542.432 1293.62 533.987L1226.34 316.427C1224.44 310.299 1220 305.296 1214.12 302.648L946.721 182.438C941.694 180.178 935.975 179.801 930.615 181.379L671.956 257.478C664.15 259.775 658.049 265.921 655.875 273.68L598.552 478.264C596.378 486.023 598.447 494.263 604.007 499.985L788.223 689.566C792.041 693.495 797.19 695.904 802.726 696.35L1097.15 720.099C1103.63 720.622 1110.09 718.411 1114.94 714.01L1286.96 557.768Z" stroke="url(#paint43_linear_173_3909)" stroke-opacity="0.2" stroke-width="4"/>
<path opacity="0.652174" d="M1298.13 567.132C1305.05 561.439 1308.12 552.406 1306.02 543.909L1251.99 325.248C1250.45 319.011 1246.29 313.764 1240.53 310.805L984.282 179.14C979.341 176.601 973.593 175.938 968.109 177.273L709.373 240.265C701.487 242.184 695.1 247.991 692.519 255.588L624.581 455.54C622 463.137 623.598 471.425 628.798 477.411L799.402 673.807L797.859 675.115L799.402 673.807C803.018 677.97 808.076 680.664 813.634 681.387L1101.87 718.903C1108.35 719.746 1114.94 717.842 1120.02 713.663L1298.13 567.132Z" stroke="url(#paint44_linear_173_3909)" stroke-opacity="0.2" stroke-width="4"/>
<path opacity="0.666667" d="M1308.58 575.693C1315.72 570.38 1319.24 561.613 1317.65 553.096L1276.81 334.052C1275.63 327.724 1271.75 322.245 1266.14 318.98L1021.55 176.648C1016.71 173.831 1010.95 172.875 1005.35 173.962L747.252 224.044C739.309 225.585 732.658 231.039 729.683 238.45L651.475 433.286C648.5 440.697 649.627 449.005 654.451 455.233L811.21 657.604C814.611 661.994 819.565 664.974 825.133 665.978L1106.48 716.709C1112.94 717.873 1119.65 716.283 1124.96 712.336L1308.58 575.693Z" stroke="url(#paint45_linear_173_3909)" stroke-opacity="0.2" stroke-width="4"/>
<path opacity="0.681159" d="M1318.37 583.418C1325.7 578.496 1329.65 570.018 1328.57 561.515L1300.79 342.793C1299.98 336.394 1296.4 330.696 1290.95 327.13L1058.5 174.939C1053.77 171.845 1048 170.593 1042.29 171.424L785.533 208.831C777.553 209.994 770.662 215.081 767.308 222.285L679.196 411.539C675.842 418.744 676.5 427.044 680.936 433.493L823.672 640.993C826.843 645.604 831.679 648.868 837.246 650.157L1111.06 713.519C1117.47 715.004 1124.3 713.735 1129.81 710.03L1318.37 583.418Z" stroke="url(#paint46_linear_173_3909)" stroke-opacity="0.2" stroke-width="4"/>
<path opacity="0.695652" d="M1327.55 590.285C1335.04 585.758 1339.39 577.594 1338.81 569.134L1323.96 351.431C1323.52 344.98 1320.25 339.078 1314.98 335.216L1095.06 173.992C1090.46 170.622 1084.7 169.069 1078.9 169.638L824.145 194.638C816.15 195.422 809.043 200.132 805.326 207.109L707.699 390.338C703.981 397.315 704.174 405.582 708.21 412.229L836.799 624.013C839.727 628.836 844.43 632.384 849.984 633.96L1115.64 709.339C1122.01 711.145 1128.92 710.203 1134.64 706.751L1327.55 590.285Z" stroke="url(#paint47_linear_173_3909)" stroke-opacity="0.2" stroke-width="4"/>
<path opacity="0.710145" d="M1336.17 596.269C1343.81 592.144 1348.54 584.313 1348.46 575.926L1346.32 359.925C1346.26 353.441 1343.32 347.349 1338.25 343.199L1131.21 173.78C1126.75 170.135 1121.01 168.277 1115.12 168.578L863.024 181.47C855.035 181.879 847.737 186.202 843.673 192.933L736.942 369.717C732.878 376.448 732.612 384.654 736.237 391.474L850.609 606.699C853.281 611.726 857.836 615.556 863.364 617.422L1120.31 704.179C1126.61 706.304 1133.59 705.694 1139.5 702.505L1336.17 596.269Z" stroke="url(#paint48_linear_173_3909)" stroke-opacity="0.2" stroke-width="4"/>
<path opacity="0.724638" d="M1344.31 601.354C1352.06 597.633 1357.14 590.153 1357.54 581.869L1367.91 368.234C1368.23 361.738 1365.62 355.472 1360.76 351.042L1166.89 174.274C1162.6 170.358 1156.89 168.192 1150.92 168.219L902.101 169.333C894.139 169.369 886.674 173.298 882.282 179.766L766.878 349.705C762.486 356.173 761.768 364.293 764.973 371.263L865.113 589.091C867.513 594.312 871.905 598.421 877.393 600.58L1125.11 698.051C1131.32 700.494 1138.37 700.222 1144.44 697.304L1344.31 601.354Z" stroke="url(#paint49_linear_173_3909)" stroke-opacity="0.2" stroke-width="4"/>
<path opacity="0.73913" d="M1352.02 605.523C1359.86 602.208 1365.27 595.094 1366.14 586.941L1388.74 376.321C1389.44 369.833 1387.18 363.41 1382.55 358.709L1202.08 175.445C1197.96 171.261 1192.3 168.784 1186.27 168.53L941.311 158.225C933.397 157.892 925.79 161.423 921.089 167.611L797.461 330.333C792.76 336.521 791.6 344.53 794.376 351.625L880.321 571.227C882.435 576.63 886.648 581.015 892.083 583.47L1130.11 690.973C1136.22 693.731 1143.3 693.8 1149.54 691.162L1352.02 605.523Z" stroke="url(#paint50_linear_173_3909)" stroke-opacity="0.2" stroke-width="4"/>
<path opacity="0.753623" d="M1359.37 608.766C1367.27 605.855 1372.97 599.121 1374.31 591.125L1408.83 384.15C1409.91 377.691 1408.01 371.128 1403.63 366.165L1236.73 177.261C1232.8 172.813 1227.2 170.023 1221.12 169.484L980.591 148.144C972.745 147.447 965.022 150.575 960.03 156.469L828.647 311.623C823.656 317.517 822.063 325.392 824.406 332.587L896.243 553.145C898.059 558.719 902.077 563.375 907.444 566.127L1135.36 682.964C1141.35 686.034 1148.46 686.447 1154.84 684.096L1359.37 608.766Z" stroke="url(#paint51_linear_173_3909)" stroke-opacity="0.2" stroke-width="4"/>
<path opacity="0.768116" d="M1366.41 611.074C1374.35 608.567 1380.32 602.223 1382.1 594.409L1428.22 391.686C1429.68 385.277 1428.14 378.592 1424.02 373.378L1270.81 179.688C1267.09 174.981 1261.57 171.876 1255.46 171.046L1019.87 139.08C1012.12 138.027 1004.3 140.749 999.039 146.336L860.383 293.6C855.122 299.187 853.108 306.904 855.014 314.174L912.883 534.884C914.386 540.615 918.192 545.539 923.476 548.588L1140.92 674.047C1146.78 677.424 1153.89 678.183 1160.4 676.127L1366.41 611.074Z" stroke="url(#paint52_linear_173_3909)" stroke-opacity="0.2" stroke-width="4"/>
<path opacity="0.782609" d="M1373.2 612.444C1381.16 610.336 1387.38 604.391 1389.58 596.783L1446.92 398.895C1448.76 392.558 1447.6 385.769 1443.75 380.318L1304.3 182.689C1300.8 177.731 1295.38 174.31 1289.24 173.185L1059.1 131.023C1051.45 129.621 1043.57 131.937 1038.06 137.206L892.625 276.281C887.115 281.551 884.693 289.088 886.159 296.407L930.248 516.483C931.425 522.358 935.002 527.542 940.187 530.888L1146.85 664.247C1152.55 667.925 1159.65 669.032 1166.27 667.276L1373.2 612.444Z" stroke="url(#paint53_linear_173_3909)" stroke-opacity="0.2" stroke-width="4"/>
<path opacity="0.797101" d="M1379.82 612.874C1387.77 611.16 1394.2 605.621 1396.81 598.24L1464.97 405.749C1467.18 399.503 1466.4 392.631 1462.85 386.955L1337.15 186.228C1333.89 181.026 1328.59 177.29 1322.43 175.865L1098.21 123.959C1090.68 122.216 1082.75 124.126 1077.01 129.068L925.319 259.684C919.58 264.625 916.765 271.964 917.791 279.306L948.334 497.982C949.172 503.985 952.503 509.422 957.573 513.064L1153.18 653.593C1158.72 657.567 1165.78 659.021 1172.51 657.571L1379.82 612.874Z" stroke="url(#paint54_linear_173_3909)" stroke-opacity="0.2" stroke-width="4"/>
<path opacity="0.811594" d="M1386.3 612.367C1394.22 611.041 1400.85 605.912 1403.85 598.778L1482.39 412.216C1484.97 406.084 1484.58 399.148 1481.33 393.261L1369.34 190.266C1366.34 184.829 1361.16 180.778 1355.01 179.051L1137.13 117.868C1129.74 115.794 1121.79 117.302 1115.85 121.906L958.413 243.822C952.467 248.426 949.273 255.546 949.859 262.887L967.139 479.418C967.626 485.532 970.694 491.213 975.632 495.15L1159.98 642.116C1165.33 646.378 1172.34 648.18 1179.15 647.04L1386.3 612.367Z" stroke="url(#paint55_linear_173_3909)" stroke-opacity="0.2" stroke-width="4"/>
<path opacity="0.826087" d="M1392.73 610.928C1400.6 609.983 1407.39 605.267 1410.76 598.399L1499.21 418.272C1502.16 412.273 1502.17 405.294 1499.24 399.213L1400.85 194.763C1398.12 189.1 1393.1 184.738 1386.96 182.705L1175.81 112.73C1168.58 110.334 1160.64 111.443 1154.5 115.704L991.865 228.705C985.732 232.965 982.175 239.848 982.323 247.163L986.665 460.83C986.791 467.036 989.577 472.952 994.367 477.18L1167.29 629.851C1172.43 634.392 1179.38 636.539 1186.25 635.713L1392.73 610.928Z" stroke="url(#paint56_linear_173_3909)" stroke-opacity="0.2" stroke-width="4"/>
<path opacity="0.84058" d="M1399.14 608.567C1406.95 607.994 1413.88 603.693 1417.6 597.107L1515.48 423.89C1518.78 418.045 1519.19 411.045 1516.6 404.786L1431.65 199.676C1429.21 193.801 1424.36 189.13 1418.26 186.79L1214.19 108.52C1207.14 105.814 1199.22 106.529 1192.92 110.44L1025.62 214.34C1019.32 218.251 1015.42 224.879 1015.13 232.143L1006.9 442.254C1006.66 448.536 1009.14 454.674 1013.77 459.19L1175.15 616.834C1180.08 621.645 1186.93 624.134 1193.86 623.625L1399.14 608.567Z" stroke="url(#paint57_linear_173_3909)" stroke-opacity="0.2" stroke-width="4"/>
<path opacity="0.855072" d="M1405.61 605.295C1413.33 605.086 1420.37 601.199 1424.42 594.91L1531.22 429.049C1534.87 423.378 1535.68 416.379 1533.44 409.959L1461.72 204.964C1459.59 198.889 1454.93 193.915 1448.88 191.267L1252.23 105.21C1245.36 102.205 1237.49 102.532 1231.04 106.09L1059.62 200.733C1053.18 204.29 1048.95 210.648 1048.24 217.836L1027.84 423.73C1027.22 430.065 1029.39 436.413 1033.83 441.211L1183.61 603.104C1188.3 608.174 1195.05 611 1202.01 610.812L1405.61 605.295Z" stroke="url(#paint58_linear_173_3909)" stroke-opacity="0.2" stroke-width="4"/>
<path opacity="0.869565" d="M1412.19 601.129C1419.81 601.274 1426.94 597.799 1431.29 591.821L1546.47 433.727C1550.46 428.25 1551.67 421.274 1549.79 414.712L1491.05 210.584C1489.25 204.324 1484.8 199.052 1478.81 196.096L1289.85 102.769C1283.19 99.4783 1275.38 99.4248 1268.81 102.625L1093.84 187.885C1087.27 191.085 1082.72 197.158 1081.59 204.246L1049.48 405.292C1048.46 411.659 1050.3 418.203 1054.54 423.277L1192.71 588.701C1197.15 594.019 1203.77 597.177 1210.74 597.31L1412.19 601.129Z" stroke="url(#paint59_linear_173_3909)" stroke-opacity="0.2" stroke-width="4"/>
<path opacity="0.884058" d="M1418.93 596.086C1426.42 596.574 1433.62 593.508 1438.26 587.853L1561.26 437.907C1565.57 432.643 1567.2 425.713 1565.68 419.029L1519.63 216.492C1518.16 210.062 1513.94 204.5 1508.04 201.237L1327.03 101.164C1320.58 97.6004 1312.86 97.1745 1306.18 100.015L1128.2 175.794C1121.53 178.635 1116.69 184.41 1115.15 191.376L1071.8 386.975C1070.38 393.353 1071.88 400.077 1075.9 405.419L1202.47 573.669C1206.65 579.222 1213.12 582.706 1220.1 583.16L1418.93 596.086Z" stroke="url(#paint60_linear_173_3909)" stroke-opacity="0.2" stroke-width="4"/>
<path opacity="0.898551" d="M1425.88 590.188C1433.24 591.008 1440.49 588.348 1445.39 583.025L1575.62 441.572C1580.26 436.54 1582.28 429.678 1581.14 422.893L1547.43 222.642C1546.32 216.061 1542.35 210.218 1536.54 206.65L1363.69 100.36C1357.48 96.5361 1349.85 95.7468 1343.1 98.2269L1162.67 164.459C1155.92 166.939 1150.8 172.403 1148.86 179.223L1094.78 368.815C1092.96 375.18 1094.1 382.067 1097.88 387.667L1212.95 558.053C1216.84 563.826 1223.15 567.628 1230.12 568.403L1425.88 590.188Z" stroke="url(#paint61_linear_173_3909)" stroke-opacity="0.2" stroke-width="4"/>
<path opacity="0.913043" d="M1433.09 583.459C1440.31 584.6 1447.58 582.34 1452.72 577.36L1589.6 444.709C1594.54 439.926 1596.97 433.157 1596.21 426.291L1574.46 228.992C1573.72 222.277 1570.01 216.164 1564.32 212.294L1399.81 100.318C1393.83 96.2476 1386.33 95.1045 1379.51 97.2239L1197.2 153.871C1190.38 155.99 1185.01 161.132 1182.68 167.786L1118.42 350.845C1116.19 357.173 1116.95 364.204 1120.48 370.053L1224.15 541.897C1227.76 547.877 1233.88 551.988 1240.81 553.084L1433.09 583.459Z" stroke="url(#paint62_linear_173_3909)" stroke-opacity="0.2" stroke-width="4"/>
<path opacity="0.927536" d="M1440.62 575.926C1447.68 577.375 1454.96 575.511 1460.31 570.88L1603.24 447.305C1608.46 442.789 1611.28 436.136 1610.92 429.212L1600.71 235.495C1600.35 228.667 1596.92 222.296 1591.37 218.127L1435.34 100.996C1429.61 96.694 1422.25 95.2076 1415.38 96.9672L1231.75 144.022C1224.88 145.782 1219.28 150.591 1216.56 157.056L1142.69 333.096C1140.06 339.362 1140.42 346.518 1143.68 352.603L1236.12 525.25C1239.42 531.421 1245.35 535.832 1252.23 537.246L1440.62 575.926Z" stroke="url(#paint63_linear_173_3909)" stroke-opacity="0.2" stroke-width="4"/>
<path opacity="0.942029" d="M1448.51 567.618C1455.4 569.364 1462.66 567.888 1468.21 563.613L1616.56 449.352C1622.05 445.119 1625.27 438.604 1625.3 431.645L1626.17 242.108C1626.2 235.187 1623.08 228.571 1617.67 224.108L1470.25 102.353C1464.77 97.8333 1457.56 96.0145 1450.67 97.4159L1266.25 134.901C1259.36 136.302 1253.54 140.769 1250.47 147.026L1167.57 315.599C1164.53 321.779 1164.49 329.037 1167.47 335.347L1248.87 508.161C1251.86 514.506 1257.57 519.206 1264.39 520.935L1448.51 567.618Z" stroke="url(#paint64_linear_173_3909)" stroke-opacity="0.2" stroke-width="4"/>
<path opacity="0.956522" d="M1456.8 558.567C1463.51 560.598 1470.74 559.503 1476.46 555.589L1629.6 450.842C1635.35 446.908 1638.95 440.555 1639.39 433.583L1650.84 248.785C1651.28 241.795 1648.48 234.948 1643.24 230.197L1504.48 104.343C1499.27 99.6207 1492.23 97.481 1485.32 98.5266L1300.68 126.492C1293.78 127.538 1287.77 131.655 1284.34 137.685L1193.05 298.384C1189.6 304.451 1189.15 311.79 1191.82 318.31L1262.43 490.678C1265.09 497.181 1270.57 502.158 1277.31 504.2L1456.8 558.567Z" stroke="url(#paint65_linear_173_3909)" stroke-opacity="0.2" stroke-width="4"/>
<path opacity="0.971014" d="M1465.55 548.807C1472.06 551.111 1479.24 550.389 1485.12 546.84L1642.41 451.77C1648.4 448.149 1652.38 441.981 1653.21 435.021L1674.74 255.483C1675.58 248.446 1673.12 241.384 1668.06 236.351L1538.02 106.92C1533.08 102.01 1526.22 99.5614 1519.32 100.254L1334.99 118.781C1328.1 119.474 1321.92 123.235 1318.16 129.018L1219.09 281.478C1215.24 287.406 1214.37 294.803 1216.72 301.519L1276.81 472.853C1279.14 479.495 1284.38 484.738 1291.02 487.088L1465.55 548.807Z" stroke="url(#paint66_linear_173_3909)" stroke-opacity="0.2" stroke-width="4"/>
<path opacity="0.985507" d="M1474.78 538.375C1481.09 540.939 1488.2 540.583 1494.2 537.401L1655.01 452.132C1661.22 448.839 1665.57 442.877 1666.81 435.953L1697.86 262.158C1699.12 255.098 1697.01 247.838 1692.15 242.532L1570.82 110.036C1566.17 104.954 1559.49 102.208 1552.63 102.552L1369.14 111.748C1362.28 112.092 1355.94 115.49 1351.86 121.01L1245.69 264.907C1241.43 270.671 1240.13 278.101 1242.15 284.996L1292.03 454.735C1294.02 461.499 1298.99 466.994 1305.53 469.648L1474.78 538.375Z" stroke="url(#paint67_linear_173_3909)" stroke-opacity="0.2" stroke-width="4"/>
<path d="M1484.53 527.309C1490.63 530.121 1497.66 530.121 1503.77 527.309L1667.45 451.929C1673.86 448.976 1678.56 443.243 1680.2 436.377L1720.21 268.766C1721.89 261.708 1720.15 254.269 1715.5 248.696L1602.87 113.642C1598.5 108.402 1592.03 105.372 1585.21 105.372L1403.09 105.372C1396.26 105.372 1389.79 108.402 1385.42 113.642L1272.8 248.696C1268.15 254.269 1266.41 261.708 1268.09 268.766L1308.09 436.377C1309.73 443.243 1314.43 448.976 1320.85 451.929L1484.53 527.309Z" stroke="url(#paint68_linear_173_3909)" stroke-opacity="0.2" stroke-width="4"/>
<defs>
<linearGradient id="paint0_linear_173_3909" x1="-240.06" y1="197.918" x2="223.717" y2="1287.19" gradientUnits="userSpaceOnUse">
<stop stop-color="#E9E931"/>
<stop offset="0.602725" stop-color="#1C8036"/>
</linearGradient>
<linearGradient id="paint1_linear_173_3909" x1="-187.574" y1="185.236" x2="216.15" y2="1285.04" gradientUnits="userSpaceOnUse">
<stop stop-color="#E9E931"/>
<stop offset="0.602725" stop-color="#1C8036"/>
</linearGradient>
<linearGradient id="paint2_linear_173_3909" x1="-135.02" y1="174.179" x2="209.027" y2="1281.44" gradientUnits="userSpaceOnUse">
<stop stop-color="#E9E931"/>
<stop offset="0.602725" stop-color="#1C8036"/>
</linearGradient>
<linearGradient id="paint3_linear_173_3909" x1="-82.4963" y1="164.733" x2="202.373" y2="1276.47" gradientUnits="userSpaceOnUse">
<stop stop-color="#E9E931"/>
<stop offset="0.602725" stop-color="#1C8036"/>
</linearGradient>
<linearGradient id="paint4_linear_173_3909" x1="-30.0908" y1="156.884" x2="196.211" y2="1270.21" gradientUnits="userSpaceOnUse">
<stop stop-color="#E9E931"/>
<stop offset="0.602725" stop-color="#1C8036"/>
</linearGradient>
<linearGradient id="paint5_linear_173_3909" x1="22.1041" y1="150.608" x2="190.546" y2="1262.71" gradientUnits="userSpaceOnUse">
<stop stop-color="#E9E931"/>
<stop offset="0.602725" stop-color="#1C8036"/>
</linearGradient>
<linearGradient id="paint6_linear_173_3909" x1="74.0031" y1="145.88" x2="185.386" y2="1254.05" gradientUnits="userSpaceOnUse">
<stop stop-color="#E9E931"/>
<stop offset="0.602725" stop-color="#1C8036"/>
</linearGradient>
<linearGradient id="paint7_linear_173_3909" x1="125.516" y1="142.67" x2="180.725" y2="1244.28" gradientUnits="userSpaceOnUse">
<stop stop-color="#E9E931"/>
<stop offset="0.602725" stop-color="#1C8036"/>
</linearGradient>
<linearGradient id="paint8_linear_173_3909" x1="176.565" y1="140.942" x2="176.565" y2="1233.43" gradientUnits="userSpaceOnUse">
<stop stop-color="#E9E931"/>
<stop offset="0.602725" stop-color="#1C8036"/>
</linearGradient>
<linearGradient id="paint9_linear_173_3909" x1="227.064" y1="140.656" x2="172.893" y2="1221.54" gradientUnits="userSpaceOnUse">
<stop stop-color="#E9E931"/>
<stop offset="0.602725" stop-color="#1C8036"/>
</linearGradient>
<linearGradient id="paint10_linear_173_3909" x1="276.94" y1="141.771" x2="169.709" y2="1208.63" gradientUnits="userSpaceOnUse">
<stop stop-color="#E9E931"/>
<stop offset="0.602725" stop-color="#1C8036"/>
</linearGradient>
<linearGradient id="paint11_linear_173_3909" x1="326.117" y1="144.239" x2="167.007" y2="1194.73" gradientUnits="userSpaceOnUse">
<stop stop-color="#E9E931"/>
<stop offset="0.602725" stop-color="#1C8036"/>
</linearGradient>
<linearGradient id="paint12_linear_173_3909" x1="374.523" y1="148.01" x2="164.785" y2="1179.84" gradientUnits="userSpaceOnUse">
<stop stop-color="#E9E931"/>
<stop offset="0.602725" stop-color="#1C8036"/>
</linearGradient>
<linearGradient id="paint13_linear_173_3909" x1="422.094" y1="153.03" x2="163.051" y2="1163.97" gradientUnits="userSpaceOnUse">
<stop stop-color="#E9E931"/>
<stop offset="0.602725" stop-color="#1C8036"/>
</linearGradient>
<linearGradient id="paint14_linear_173_3909" x1="468.76" y1="159.242" x2="161.807" y2="1147.12" gradientUnits="userSpaceOnUse">
<stop stop-color="#E9E931"/>
<stop offset="0.602725" stop-color="#1C8036"/>
</linearGradient>
<linearGradient id="paint15_linear_173_3909" x1="514.47" y1="166.587" x2="161.077" y2="1129.28" gradientUnits="userSpaceOnUse">
<stop stop-color="#E9E931"/>
<stop offset="0.602725" stop-color="#1C8036"/>
</linearGradient>
<linearGradient id="paint16_linear_173_3909" x1="559.163" y1="175.002" x2="160.879" y2="1110.45" gradientUnits="userSpaceOnUse">
<stop stop-color="#E9E931"/>
<stop offset="0.602725" stop-color="#1C8036"/>
</linearGradient>
<linearGradient id="paint17_linear_173_3909" x1="602.789" y1="184.422" x2="161.244" y2="1090.61" gradientUnits="userSpaceOnUse">
<stop stop-color="#E9E931"/>
<stop offset="0.602725" stop-color="#1C8036"/>
</linearGradient>
<linearGradient id="paint18_linear_173_3909" x1="645.301" y1="194.78" x2="162.212" y2="1069.75" gradientUnits="userSpaceOnUse">
<stop stop-color="#E9E931"/>
<stop offset="0.602725" stop-color="#1C8036"/>
</linearGradient>
<linearGradient id="paint19_linear_173_3909" x1="686.654" y1="206.008" x2="163.828" y2="1047.88" gradientUnits="userSpaceOnUse">
<stop stop-color="#E9E931"/>
<stop offset="0.602725" stop-color="#1C8036"/>
</linearGradient>
<linearGradient id="paint20_linear_173_3909" x1="726.815" y1="218.035" x2="166.151" y2="1024.99" gradientUnits="userSpaceOnUse">
<stop stop-color="#E9E931"/>
<stop offset="0.602725" stop-color="#1C8036"/>
</linearGradient>
<linearGradient id="paint21_linear_173_3909" x1="765.745" y1="230.789" x2="169.239" y2="1001.08" gradientUnits="userSpaceOnUse">
<stop stop-color="#E9E931"/>
<stop offset="0.602725" stop-color="#1C8036"/>
</linearGradient>
<linearGradient id="paint22_linear_173_3909" x1="803.419" y1="244.196" x2="173.168" y2="976.15" gradientUnits="userSpaceOnUse">
<stop stop-color="#E9E931"/>
<stop offset="0.602725" stop-color="#1C8036"/>
</linearGradient>
<linearGradient id="paint23_linear_173_3909" x1="839.811" y1="258.183" x2="178.01" y2="950.229" gradientUnits="userSpaceOnUse">
<stop stop-color="#E9E931"/>
<stop offset="0.602725" stop-color="#1C8036"/>
</linearGradient>
<linearGradient id="paint24_linear_173_3909" x1="874.9" y1="272.675" x2="183.847" y2="923.339" gradientUnits="userSpaceOnUse">
<stop stop-color="#E9E931"/>
<stop offset="0.602725" stop-color="#1C8036"/>
</linearGradient>
<linearGradient id="paint25_linear_173_3909" x1="908.672" y1="287.597" x2="190.763" y2="895.516" gradientUnits="userSpaceOnUse">
<stop stop-color="#E9E931"/>
<stop offset="0.602725" stop-color="#1C8036"/>
</linearGradient>
<linearGradient id="paint26_linear_173_3909" x1="941.115" y1="302.873" x2="198.845" y2="866.81" gradientUnits="userSpaceOnUse">
<stop stop-color="#E9E931"/>
<stop offset="0.602725" stop-color="#1C8036"/>
</linearGradient>
<linearGradient id="paint27_linear_173_3909" x1="972.226" y1="318.43" x2="208.183" y2="837.281" gradientUnits="userSpaceOnUse">
<stop stop-color="#E9E931"/>
<stop offset="0.602725" stop-color="#1C8036"/>
</linearGradient>
<linearGradient id="paint28_linear_173_3909" x1="1002" y1="334.191" x2="218.854" y2="807.004" gradientUnits="userSpaceOnUse">
<stop stop-color="#E9E931"/>
<stop offset="0.602725" stop-color="#1C8036"/>
</linearGradient>
<linearGradient id="paint29_linear_173_3909" x1="1030.44" y1="350.084" x2="230.948" y2="776.064" gradientUnits="userSpaceOnUse">
<stop stop-color="#E9E931"/>
<stop offset="0.602725" stop-color="#1C8036"/>
</linearGradient>
<linearGradient id="paint30_linear_173_3909" x1="1057.56" y1="366.036" x2="244.532" y2="744.562" gradientUnits="userSpaceOnUse">
<stop stop-color="#E9E931"/>
<stop offset="0.602725" stop-color="#1C8036"/>
</linearGradient>
<linearGradient id="paint31_linear_173_3909" x1="1083.36" y1="381.973" x2="259.673" y2="712.608" gradientUnits="userSpaceOnUse">
<stop stop-color="#E9E931"/>
<stop offset="0.602725" stop-color="#1C8036"/>
</linearGradient>
<linearGradient id="paint32_linear_173_3909" x1="1107.87" y1="397.826" x2="276.427" y2="680.325" gradientUnits="userSpaceOnUse">
<stop stop-color="#E9E931"/>
<stop offset="0.602725" stop-color="#1C8036"/>
</linearGradient>
<linearGradient id="paint33_linear_173_3909" x1="1131.1" y1="413.526" x2="294.836" y2="647.843" gradientUnits="userSpaceOnUse">
<stop stop-color="#E9E931"/>
<stop offset="0.602725" stop-color="#1C8036"/>
</linearGradient>
<linearGradient id="paint34_linear_173_3909" x1="1153.08" y1="429.005" x2="314.929" y2="615.301" gradientUnits="userSpaceOnUse">
<stop stop-color="#E9E931"/>
<stop offset="0.602725" stop-color="#1C8036"/>
</linearGradient>
<linearGradient id="paint35_linear_173_3909" x1="1173.83" y1="444.197" x2="336.715" y2="582.843" gradientUnits="userSpaceOnUse">
<stop stop-color="#E9E931"/>
<stop offset="0.602725" stop-color="#1C8036"/>
</linearGradient>
<linearGradient id="paint36_linear_173_3909" x1="1193.39" y1="459.041" x2="360.193" y2="550.616" gradientUnits="userSpaceOnUse">
<stop stop-color="#E9E931"/>
<stop offset="0.602725" stop-color="#1C8036"/>
</linearGradient>
<linearGradient id="paint37_linear_173_3909" x1="1211.79" y1="473.475" x2="385.341" y2="518.767" gradientUnits="userSpaceOnUse">
<stop stop-color="#E9E931"/>
<stop offset="0.602725" stop-color="#1C8036"/>
</linearGradient>
<linearGradient id="paint38_linear_173_3909" x1="1229.06" y1="487.442" x2="412.121" y2="487.441" gradientUnits="userSpaceOnUse">
<stop stop-color="#E9E931"/>
<stop offset="0.602725" stop-color="#1C8036"/>
</linearGradient>
<linearGradient id="paint39_linear_173_3909" x1="1245.26" y1="500.884" x2="440.48" y2="456.78" gradientUnits="userSpaceOnUse">
<stop stop-color="#E9E931"/>
<stop offset="0.602725" stop-color="#1C8036"/>
</linearGradient>
<linearGradient id="paint40_linear_173_3909" x1="1260.43" y1="513.751" x2="470.346" y2="426.915" gradientUnits="userSpaceOnUse">
<stop stop-color="#E9E931"/>
<stop offset="0.602725" stop-color="#1C8036"/>
</linearGradient>
<linearGradient id="paint41_linear_173_3909" x1="1274.6" y1="525.993" x2="501.636" y2="397.971" gradientUnits="userSpaceOnUse">
<stop stop-color="#E9E931"/>
<stop offset="0.602725" stop-color="#1C8036"/>
</linearGradient>
<linearGradient id="paint42_linear_173_3909" x1="1287.84" y1="537.562" x2="534.247" y2="370.06" gradientUnits="userSpaceOnUse">
<stop stop-color="#E9E931"/>
<stop offset="0.602725" stop-color="#1C8036"/>
</linearGradient>
<linearGradient id="paint43_linear_173_3909" x1="1300.2" y1="548.416" x2="568.073" y2="343.279" gradientUnits="userSpaceOnUse">
<stop stop-color="#E9E931"/>
<stop offset="0.602725" stop-color="#1C8036"/>
</linearGradient>
<linearGradient id="paint44_linear_173_3909" x1="1311.72" y1="558.516" x2="602.996" y2="317.714" gradientUnits="userSpaceOnUse">
<stop stop-color="#E9E931"/>
<stop offset="0.602725" stop-color="#1C8036"/>
</linearGradient>
<linearGradient id="paint45_linear_173_3909" x1="1322.46" y1="567.824" x2="638.889" y2="293.433" gradientUnits="userSpaceOnUse">
<stop stop-color="#E9E931"/>
<stop offset="0.602725" stop-color="#1C8036"/>
</linearGradient>
<linearGradient id="paint46_linear_173_3909" x1="1332.49" y1="576.308" x2="675.628" y2="270.488" gradientUnits="userSpaceOnUse">
<stop stop-color="#E9E931"/>
<stop offset="0.602725" stop-color="#1C8036"/>
</linearGradient>
<linearGradient id="paint47_linear_173_3909" x1="1341.86" y1="583.939" x2="713.078" y2="248.916" gradientUnits="userSpaceOnUse">
<stop stop-color="#E9E931"/>
<stop offset="0.602725" stop-color="#1C8036"/>
</linearGradient>
<linearGradient id="paint48_linear_173_3909" x1="1350.63" y1="590.691" x2="751.112" y2="228.738" gradientUnits="userSpaceOnUse">
<stop stop-color="#E9E931"/>
<stop offset="0.602725" stop-color="#1C8036"/>
</linearGradient>
<linearGradient id="paint49_linear_173_3909" x1="1358.87" y1="596.543" x2="789.599" y2="209.959" gradientUnits="userSpaceOnUse">
<stop stop-color="#E9E931"/>
<stop offset="0.602725" stop-color="#1C8036"/>
</linearGradient>
<linearGradient id="paint50_linear_173_3909" x1="1366.63" y1="601.476" x2="828.419" y2="192.573" gradientUnits="userSpaceOnUse">
<stop stop-color="#E9E931"/>
<stop offset="0.602725" stop-color="#1C8036"/>
</linearGradient>
<linearGradient id="paint51_linear_173_3909" x1="1373.98" y1="605.475" x2="867.457" y2="176.557" gradientUnits="userSpaceOnUse">
<stop stop-color="#E9E931"/>
<stop offset="0.602725" stop-color="#1C8036"/>
</linearGradient>
<linearGradient id="paint52_linear_173_3909" x1="1380.97" y1="608.53" x2="906.601" y2="161.882" gradientUnits="userSpaceOnUse">
<stop stop-color="#E9E931"/>
<stop offset="0.602725" stop-color="#1C8036"/>
</linearGradient>
<linearGradient id="paint53_linear_173_3909" x1="1387.69" y1="610.634" x2="945.756" y2="148.504" gradientUnits="userSpaceOnUse">
<stop stop-color="#E9E931"/>
<stop offset="0.602725" stop-color="#1C8036"/>
</linearGradient>
<linearGradient id="paint54_linear_173_3909" x1="1394.18" y1="611.784" x2="984.826" y2="136.374" gradientUnits="userSpaceOnUse">
<stop stop-color="#E9E931"/>
<stop offset="0.602725" stop-color="#1C8036"/>
</linearGradient>
<linearGradient id="paint55_linear_173_3909" x1="1400.5" y1="611.98" x2="1023.73" y2="125.438" gradientUnits="userSpaceOnUse">
<stop stop-color="#E9E931"/>
<stop offset="0.602725" stop-color="#1C8036"/>
</linearGradient>
<linearGradient id="paint56_linear_173_3909" x1="1406.73" y1="611.225" x2="1062.4" y2="115.635" gradientUnits="userSpaceOnUse">
<stop stop-color="#E9E931"/>
<stop offset="0.602725" stop-color="#1C8036"/>
</linearGradient>
<linearGradient id="paint57_linear_173_3909" x1="1412.91" y1="609.527" x2="1100.77" y2="106.902" gradientUnits="userSpaceOnUse">
<stop stop-color="#E9E931"/>
<stop offset="0.602725" stop-color="#1C8036"/>
</linearGradient>
<linearGradient id="paint58_linear_173_3909" x1="1419.12" y1="606.898" x2="1138.8" y2="99.1739" gradientUnits="userSpaceOnUse">
<stop stop-color="#E9E931"/>
<stop offset="0.602725" stop-color="#1C8036"/>
</linearGradient>
<linearGradient id="paint59_linear_173_3909" x1="1425.4" y1="603.35" x2="1176.43" y2="92.386" gradientUnits="userSpaceOnUse">
<stop stop-color="#E9E931"/>
<stop offset="0.602725" stop-color="#1C8036"/>
</linearGradient>
<linearGradient id="paint60_linear_173_3909" x1="1431.82" y1="598.901" x2="1213.65" y2="86.4741" gradientUnits="userSpaceOnUse">
<stop stop-color="#E9E931"/>
<stop offset="0.602725" stop-color="#1C8036"/>
</linearGradient>
<linearGradient id="paint61_linear_173_3909" x1="1438.43" y1="593.573" x2="1250.41" y2="81.3762" gradientUnits="userSpaceOnUse">
<stop stop-color="#E9E931"/>
<stop offset="0.602725" stop-color="#1C8036"/>
</linearGradient>
<linearGradient id="paint62_linear_173_3909" x1="1445.28" y1="587.388" x2="1286.7" y2="77.0329" gradientUnits="userSpaceOnUse">
<stop stop-color="#E9E931"/>
<stop offset="0.602725" stop-color="#1C8036"/>
</linearGradient>
<linearGradient id="paint63_linear_173_3909" x1="1452.42" y1="580.372" x2="1322.51" y2="73.3878" gradientUnits="userSpaceOnUse">
<stop stop-color="#E9E931"/>
<stop offset="0.602725" stop-color="#1C8036"/>
</linearGradient>
<linearGradient id="paint64_linear_173_3909" x1="1459.9" y1="572.555" x2="1357.83" y2="70.3887" gradientUnits="userSpaceOnUse">
<stop stop-color="#E9E931"/>
<stop offset="0.602725" stop-color="#1C8036"/>
</linearGradient>
<linearGradient id="paint65_linear_173_3909" x1="1467.77" y1="563.968" x2="1392.65" y2="67.9875" gradientUnits="userSpaceOnUse">
<stop stop-color="#E9E931"/>
<stop offset="0.602725" stop-color="#1C8036"/>
</linearGradient>
<linearGradient id="paint66_linear_173_3909" x1="1476.08" y1="554.646" x2="1426.98" y2="66.1404" gradientUnits="userSpaceOnUse">
<stop stop-color="#E9E931"/>
<stop offset="0.602725" stop-color="#1C8036"/>
</linearGradient>
<linearGradient id="paint67_linear_173_3909" x1="1484.86" y1="544.624" x2="1460.81" y2="64.8078" gradientUnits="userSpaceOnUse">
<stop stop-color="#E9E931"/>
<stop offset="0.602725" stop-color="#1C8036"/>
</linearGradient>
<linearGradient id="paint68_linear_173_3909" x1="1494.15" y1="533.942" x2="1494.15" y2="63.954" gradientUnits="userSpaceOnUse">
<stop stop-color="#E9E931"/>
<stop offset="0.602725" stop-color="#1C8036"/>
</linearGradient>
</defs>
</svg>
