<svg width="1512" height="1763" viewBox="0 0 1512 1763" fill="none" xmlns="http://www.w3.org/2000/svg">
<g id="Looper BG">
<path id="Polygon 1_68" opacity="0.0144928" d="M1619.23 1463.65C1628.29 1468.45 1639.43 1466.69 1646.55 1459.32L1872.88 1225.24C1877.1 1220.88 1879.42 1215.04 1879.35 1208.97L1873.73 742.909C1873.67 738.142 1872.14 733.511 1869.33 729.656L1629.19 399.549C1624.1 392.559 1615.53 389.011 1606.99 390.363L1326.54 434.782C1318 436.134 1310.94 442.159 1308.27 450.378L1181.88 838.537C1180.41 843.07 1180.37 847.95 1181.79 852.501L1320.47 1297.49C1322.28 1303.28 1326.29 1308.12 1331.65 1310.96L1619.23 1463.65Z" stroke="url(#paint0_linear_173_3572)" stroke-opacity="0.4" style="" stroke-width="4"/>
<path id="Polygon 1_67" opacity="0.0289855" d="M1568.08 1462.16C1576.86 1467.4 1588.04 1466.23 1595.53 1459.27L1832.45 1239.33C1836.9 1235.2 1839.53 1229.47 1839.78 1223.41L1858.61 761.976C1858.8 757.198 1857.51 752.478 1854.89 748.473L1633.81 409.496C1629.09 402.265 1620.73 398.284 1612.14 399.187L1331.43 428.691C1322.85 429.593 1315.49 435.227 1312.38 443.28L1166.6 820.815C1164.88 825.276 1164.59 830.162 1165.78 834.795L1280.13 1282.23C1281.64 1288.11 1285.4 1293.16 1290.61 1296.27L1568.08 1462.16Z" stroke="url(#paint1_linear_173_3572)" stroke-opacity="0.4" style="" stroke-width="4"/>
<path id="Polygon 1_66" opacity="0.0434783" d="M1517.32 1459.12C1525.8 1464.79 1536.99 1464.2 1544.83 1457.68L1791.47 1252.33C1796.14 1248.43 1799.09 1242.85 1799.66 1236.8L1842.43 781.271C1842.88 776.496 1841.82 771.7 1839.41 767.554L1637.66 420.788C1633.32 413.336 1625.19 408.935 1616.58 409.386L1336.39 424.07C1327.78 424.521 1320.15 429.749 1316.62 437.613L1152.22 803.569C1150.25 807.944 1149.7 812.824 1150.65 817.526L1240.8 1266.09C1242 1272.05 1245.51 1277.29 1250.57 1280.67L1517.32 1459.12Z" stroke="url(#paint2_linear_173_3572)" stroke-opacity="0.4" style="" stroke-width="4"/>
<path id="Polygon 1_65" opacity="0.057971" d="M1467.04 1454.56C1475.2 1460.64 1486.37 1460.64 1494.52 1454.56L1750.02 1264.22C1754.91 1260.58 1758.15 1255.15 1759.04 1249.13L1825.19 800.737C1825.89 795.977 1825.09 791.117 1822.88 786.841L1640.67 433.37C1636.72 425.717 1628.83 420.909 1620.22 420.909L1341.34 420.909C1332.73 420.909 1324.84 425.717 1320.9 433.37L1138.68 786.841C1136.48 791.117 1135.67 795.977 1136.37 800.737L1202.53 1249.13C1203.42 1255.15 1206.66 1260.58 1211.54 1264.22L1467.04 1454.56Z" stroke="url(#paint3_linear_173_3572)" stroke-opacity="0.4" style="" stroke-width="4"/>
<path id="Polygon 1_64" opacity="0.0724638" d="M1417.32 1448.54C1425.13 1455 1436.25 1455.58 1444.7 1449.97L1708.16 1274.99C1713.24 1271.62 1716.77 1266.36 1717.98 1260.39L1806.89 820.313C1807.85 815.582 1807.29 810.671 1805.3 806.274L1642.77 447.184C1639.22 439.351 1631.6 434.149 1623.02 433.699L1346.2 419.192C1337.62 418.742 1329.5 423.119 1325.15 430.538L1125.98 770.672C1123.54 774.837 1122.47 779.663 1122.93 784.468L1165.35 1231.42C1165.92 1237.49 1168.89 1243.09 1173.59 1246.97L1417.32 1448.54Z" stroke="url(#paint4_linear_173_3572)" stroke-opacity="0.4" style="" stroke-width="4"/>
<path id="Polygon 1_63" opacity="0.0869565" d="M1368.22 1441.08C1375.68 1447.91 1386.72 1449.07 1395.43 1443.94L1665.95 1284.63C1671.22 1281.53 1675.03 1276.47 1676.55 1270.55L1787.53 839.941C1788.73 835.253 1788.43 830.303 1786.66 825.796L1643.9 462.169C1640.76 454.176 1633.44 448.597 1624.9 447.7L1350.9 418.901C1342.36 418.004 1334.03 421.937 1329.3 429.103L1114.05 755.102C1111.39 759.143 1110.06 763.922 1110.27 768.759L1129.29 1213.03C1129.55 1219.13 1132.23 1224.88 1136.73 1229.01L1368.22 1441.08Z" stroke="url(#paint5_linear_173_3572)" stroke-opacity="0.4" style="" stroke-width="4"/>
<path id="Polygon 1_62" opacity="0.101449" d="M1319.83 1432.24C1326.91 1439.42 1337.83 1441.15 1346.78 1436.51L1623.46 1293.13C1628.89 1290.32 1632.98 1285.45 1634.81 1279.62L1767.1 859.564C1768.56 854.931 1768.52 849.955 1766.97 845.35L1644.01 478.26C1641.29 470.13 1634.27 464.19 1625.8 462.848L1355.35 420.013C1346.88 418.672 1338.37 422.152 1333.26 429.043L1102.88 740.168C1099.99 744.071 1098.41 748.79 1098.37 753.647L1094.38 1194.02C1094.32 1200.14 1096.71 1206.03 1101 1210.38L1319.83 1432.24Z" stroke="url(#paint6_linear_173_3572)" stroke-opacity="0.4" style="" stroke-width="4"/>
<path id="Polygon 1_61" opacity="0.115942" d="M1272.2 1422.08C1278.89 1429.59 1289.68 1431.88 1298.84 1427.74L1580.74 1300.49C1586.33 1297.96 1590.67 1293.32 1592.82 1287.58L1745.63 879.123C1747.34 874.559 1747.55 869.57 1746.24 864.877L1643.04 495.391C1640.74 487.145 1634.05 480.861 1625.67 479.081L1359.48 422.5C1351.11 420.72 1342.44 423.738 1336.98 430.335L1092.42 725.903C1089.31 729.658 1087.48 734.302 1087.18 739.166L1060.65 1174.46C1060.28 1180.58 1062.36 1186.59 1066.43 1191.17L1272.2 1422.08Z" stroke="url(#paint7_linear_173_3572)" stroke-opacity="0.4" style="" stroke-width="4"/>
<path id="Polygon 1_60" opacity="0.130435" d="M1225.42 1410.65C1231.7 1418.46 1242.32 1421.3 1251.66 1417.68L1537.87 1306.7C1543.59 1304.48 1548.19 1300.06 1550.64 1294.44L1723.12 898.562C1725.07 894.079 1725.55 889.091 1724.47 884.321L1640.96 513.492C1639.08 505.152 1632.73 498.542 1624.47 496.329L1363.23 426.33C1354.97 424.118 1346.17 426.668 1340.37 432.951L1082.63 712.341C1079.32 715.935 1077.23 720.492 1076.68 725.35L1028.12 1154.43C1027.43 1160.53 1029.21 1166.65 1033.05 1171.43L1225.42 1410.65Z" stroke="url(#paint8_linear_173_3572)" stroke-opacity="0.4" style="" stroke-width="4"/>
<path id="Polygon 1_59" opacity="0.144928" d="M1179.54 1398C1185.4 1406.09 1195.81 1409.47 1205.31 1406.37L1494.89 1311.76C1500.74 1309.85 1505.57 1305.69 1508.32 1300.19L1699.58 917.824C1701.78 913.437 1702.51 908.462 1701.68 903.628L1637.7 532.493C1636.25 524.081 1630.26 517.164 1622.14 514.526L1366.52 431.471C1358.41 428.833 1349.49 430.908 1343.38 436.862L1073.47 699.511C1069.96 702.933 1067.63 707.389 1066.82 712.228L996.806 1133.99C995.799 1140.05 997.261 1146.27 1000.87 1151.24L1179.54 1398Z" stroke="url(#paint9_linear_173_3572)" stroke-opacity="0.4" style="" stroke-width="4"/>
<path id="Polygon 1_58" opacity="0.15942" d="M1134.61 1384.2C1140.04 1392.55 1150.22 1396.46 1159.84 1393.88L1451.89 1315.69C1457.83 1314.1 1462.89 1310.19 1465.93 1304.84L1675.03 936.856C1677.47 932.576 1678.46 927.628 1677.87 922.741L1633.24 552.32C1632.22 543.858 1626.6 536.653 1618.65 533.599L1369.3 437.882C1361.34 434.828 1352.34 436.424 1345.92 442.03L1064.89 687.441C1061.19 690.679 1058.62 695.021 1057.56 699.829L966.721 1113.21C965.4 1119.22 966.544 1125.51 969.898 1130.68L1134.61 1384.2Z" stroke="url(#paint10_linear_173_3572)" stroke-opacity="0.4" style="" stroke-width="4"/>
<path id="Polygon 1_57" opacity="0.173913" d="M1090.69 1369.31C1095.68 1377.9 1105.61 1382.32 1115.32 1380.27L1408.9 1318.5C1414.94 1317.23 1420.21 1313.59 1423.54 1308.4L1649.5 955.602C1652.16 951.442 1653.42 946.536 1653.08 941.608L1627.54 572.898C1626.95 564.408 1621.72 556.937 1613.95 553.475L1371.48 445.524C1363.71 442.062 1354.66 443.176 1347.96 448.42L1056.86 676.155C1052.97 679.199 1050.16 683.415 1048.85 688.178L937.876 1092.17C936.242 1098.11 937.065 1104.47 940.159 1109.8L1090.69 1369.31Z" stroke="url(#paint11_linear_173_3572)" stroke-opacity="0.4" style="" stroke-width="4"/>
<path id="Polygon 1_56" opacity="0.188406" d="M1047.84 1353.4C1052.36 1362.2 1062.02 1367.12 1071.8 1365.61L1366 1320.19C1372.11 1319.24 1377.58 1315.89 1381.18 1310.87L1622.99 974.012C1625.88 969.985 1627.4 965.132 1627.3 960.176L1620.56 594.15C1620.4 585.655 1615.57 577.938 1608 574.081L1373.02 454.35C1365.45 450.493 1356.37 451.123 1349.4 455.99L1049.32 665.677C1045.25 668.516 1042.22 672.592 1040.66 677.298L910.27 1070.93C908.328 1076.79 908.826 1083.19 911.652 1088.68L1047.84 1353.4Z" stroke="url(#paint12_linear_173_3572)" stroke-opacity="0.4" style="" stroke-width="4"/>
<path id="Polygon 1_55" opacity="0.202899" d="M1006.09 1336.54C1010.15 1345.52 1019.5 1350.92 1029.32 1349.95L1323.25 1320.78C1329.4 1320.17 1335.06 1317.1 1338.92 1312.27L1595.55 992.035C1598.66 988.153 1600.43 983.366 1600.59 978.394L1612.29 616C1612.56 607.522 1608.15 599.581 1600.8 595.34L1373.86 464.315C1366.51 460.073 1357.43 460.22 1350.22 464.696L1042.23 656.024C1038 658.65 1034.74 662.574 1032.93 667.209L883.912 1049.57C881.666 1055.34 881.836 1061.76 884.385 1067.4L1006.09 1336.54Z" stroke="url(#paint13_linear_173_3572)" stroke-opacity="0.4" style="" stroke-width="4"/>
<path id="Polygon 1_54" opacity="0.217391" d="M965.487 1318.79C969.082 1327.95 978.098 1333.8 987.921 1333.36L1280.69 1320.29C1286.88 1320.01 1292.7 1317.25 1296.82 1312.62L1567.19 1009.62C1570.51 1005.9 1572.53 1001.19 1572.95 996.214L1602.69 638.37C1603.4 629.93 1599.4 621.788 1592.3 617.175L1373.93 475.366C1366.83 470.754 1357.77 470.418 1350.34 474.492L1035.54 647.216C1031.16 649.618 1027.68 653.379 1025.63 657.931L858.792 1028.16C856.246 1033.81 856.088 1040.25 858.353 1046.02L965.487 1318.79Z" stroke="url(#paint14_linear_173_3572)" stroke-opacity="0.4" style="" stroke-width="4"/>
<path id="Polygon 1_53" opacity="0.231884" d="M926.071 1300.24C929.19 1309.53 937.853 1315.83 947.653 1315.92L1238.39 1318.73C1244.59 1318.79 1250.56 1316.34 1254.94 1311.94L1537.94 1026.72C1541.47 1023.17 1543.74 1018.55 1544.41 1013.59L1591.77 661.181C1592.89 652.801 1589.33 644.48 1582.49 639.51L1373.2 487.453C1366.36 482.483 1357.35 481.667 1349.72 485.327L1029.2 639.266C1024.68 641.435 1021 645.021 1018.7 649.477L834.906 1006.77C832.066 1012.29 831.578 1018.72 833.554 1024.61L926.071 1300.24Z" stroke="url(#paint15_linear_173_3572)" stroke-opacity="0.4" style="" stroke-width="4"/>
<path id="Polygon 1_52" opacity="0.246377" d="M887.871 1280.96C890.509 1290.36 898.798 1297.07 908.545 1297.7L1196.39 1316.15C1202.6 1316.55 1208.7 1314.41 1213.31 1310.24L1507.84 1043.3C1511.57 1039.92 1514.09 1035.42 1515.01 1030.47L1579.49 684.353C1581.03 676.055 1577.91 667.577 1571.35 662.266L1371.61 500.519C1365.05 495.207 1356.11 493.915 1348.32 497.152L1023.17 632.185C1018.52 634.115 1014.64 637.514 1012.11 641.862L812.24 985.459C809.113 990.835 808.297 997.248 809.976 1003.24L887.871 1280.96Z" stroke="url(#paint16_linear_173_3572)" stroke-opacity="0.4" style="" stroke-width="4"/>
<path id="Polygon 1_51" opacity="0.26087" d="M850.919 1261.01C853.073 1270.5 860.968 1277.61 870.633 1278.76L1154.76 1312.55C1160.94 1313.29 1167.16 1311.49 1172 1307.55L1476.93 1059.3C1480.85 1056.12 1483.6 1051.73 1484.78 1046.82L1565.86 707.807C1567.82 699.613 1565.14 691.003 1558.88 685.365L1369.12 514.507C1362.86 508.869 1354.02 507.106 1346.07 509.912L1017.4 625.984C1012.63 627.666 1008.56 630.867 1005.8 635.095L790.784 964.307C787.378 969.523 786.233 975.898 787.611 981.973L850.919 1261.01Z" stroke="url(#paint17_linear_173_3572)" stroke-opacity="0.4" style="" stroke-width="4"/>
<path id="Polygon 1_50" opacity="0.275362" d="M815.236 1240.48C816.903 1250.04 824.385 1257.52 833.939 1259.19L1113.54 1307.98C1119.68 1309.05 1126 1307.58 1131.04 1303.9L1445.24 1074.7C1449.33 1071.71 1452.33 1067.45 1453.75 1062.59L1550.87 731.466C1553.24 723.395 1551.01 714.676 1545.06 708.729L1365.69 529.357C1359.74 523.41 1351.03 521.184 1342.96 523.551L1011.83 620.669C1006.97 622.095 1002.71 625.089 999.724 629.184L770.516 943.376C766.838 948.418 765.367 954.738 766.44 960.886L815.236 1240.48Z" stroke="url(#paint18_linear_173_3572)" stroke-opacity="0.4" style="" stroke-width="4"/>
<path id="Polygon 1_49" opacity="0.289855" d="M780.84 1219.45C782.021 1229.04 789.071 1236.87 798.486 1239.05L1072.77 1302.46C1078.86 1303.87 1085.26 1302.74 1090.5 1299.33L1412.8 1089.44C1417.07 1086.66 1420.29 1082.55 1421.97 1077.74L1534.52 755.25C1537.29 747.324 1535.52 738.52 1529.9 732.281L1361.28 545.01C1355.66 538.772 1347.09 536.089 1338.92 538.012L1006.43 616.243C1001.48 617.408 997.048 620.184 993.841 624.134L751.414 922.731C747.473 927.585 745.678 933.834 746.442 940.039L780.84 1219.45Z" stroke="url(#paint19_linear_173_3572)" stroke-opacity="0.4" style="" stroke-width="4"/>
<path id="Polygon 1_48" opacity="0.304348" d="M747.746 1197.98C748.441 1207.59 755.044 1215.74 764.293 1218.42L1032.5 1296.03C1038.52 1297.77 1044.99 1296.98 1050.41 1293.85L1379.67 1103.49C1384.09 1100.94 1387.54 1096.98 1389.46 1092.25L1516.83 779.082C1519.98 771.32 1518.67 762.455 1513.4 755.943L1355.86 561.403C1350.59 554.891 1342.19 551.762 1333.94 553.236L1001.14 612.708C996.109 613.606 991.522 616.154 988.101 619.949L733.451 902.436C729.258 907.088 727.143 913.249 727.595 919.496L747.746 1197.98Z" stroke="url(#paint20_linear_173_3572)" stroke-opacity="0.4" style="" stroke-width="4"/>
<path id="Polygon 1_47" opacity="0.318841" d="M715.966 1176.17C716.177 1185.76 722.318 1194.21 731.373 1197.37L992.788 1288.72C998.711 1290.79 1005.22 1290.35 1010.81 1287.5L1345.88 1116.83C1350.45 1114.5 1354.11 1110.71 1356.28 1106.06L1497.79 802.886C1501.33 795.307 1500.47 786.405 1495.56 779.639L1349.4 578.473C1344.48 571.706 1336.28 568.142 1327.98 569.164L995.913 610.062C990.821 610.689 986.086 613 982.459 616.628L716.6 882.551C712.164 886.988 709.733 893.046 709.871 899.319L715.966 1176.17Z" stroke="url(#paint21_linear_173_3572)" stroke-opacity="0.4" style="" stroke-width="4"/>
<path id="Polygon 1_46" opacity="0.333333" d="M685.506 1154.07C685.236 1163.63 690.902 1172.35 699.737 1175.99L953.66 1280.57C959.472 1282.97 966.011 1282.88 971.756 1280.33L1311.47 1129.41C1316.18 1127.32 1320.05 1123.71 1322.46 1119.16L1477.43 826.585C1481.34 819.208 1480.94 810.294 1476.39 803.293L1341.88 596.154C1337.33 589.153 1329.35 585.165 1321.02 585.734L990.706 608.302C985.567 608.653 980.695 610.719 976.87 614.169L700.83 863.136C696.162 867.346 693.421 873.284 693.244 879.567L685.506 1154.07Z" stroke="url(#paint22_linear_173_3572)" stroke-opacity="0.4" style="" stroke-width="4"/>
<path id="Polygon 1_45" opacity="0.347826" d="M656.363 1131.78C655.618 1141.27 660.796 1150.24 669.387 1154.34L915.156 1271.63C920.84 1274.34 927.387 1274.6 933.27 1272.36L1276.5 1141.22C1281.34 1139.37 1285.4 1135.95 1288.05 1131.51L1455.76 850.107C1460.03 842.95 1460.09 834.047 1455.92 826.832L1333.26 614.381C1329.1 607.166 1321.36 602.768 1313.03 602.883L985.469 607.421C980.297 607.492 975.3 609.305 971.285 612.567L686.102 844.248C681.214 848.219 678.168 854.021 677.675 860.299L656.363 1131.78Z" stroke="url(#paint23_linear_173_3572)" stroke-opacity="0.4" style="" stroke-width="4"/>
<path id="Polygon 1_44" opacity="0.362319" d="M628.537 1109.37C627.323 1118.77 632.003 1127.96 640.324 1132.5L877.313 1261.93C882.851 1264.95 889.388 1265.57 895.393 1263.63L1241.01 1152.22C1245.96 1150.63 1250.22 1147.41 1253.1 1143.08L1432.81 873.378C1437.42 866.459 1437.93 857.591 1434.16 850.183L1323.55 633.089C1319.77 625.681 1312.29 620.887 1303.98 620.55L980.156 607.41C974.966 607.199 969.857 608.752 965.661 611.815L672.378 825.941C667.282 829.661 663.938 835.312 663.13 841.57L628.537 1109.37Z" stroke="url(#paint24_linear_173_3572)" stroke-opacity="0.4" style="" stroke-width="4"/>
<path id="Polygon 1_43" opacity="0.376812" d="M602.02 1086.91C600.343 1096.2 604.516 1105.58 612.545 1110.55L840.165 1251.51C845.54 1254.84 852.047 1255.81 858.159 1254.2L1205.05 1162.39C1210.09 1161.06 1214.53 1158.05 1217.64 1153.86L1408.6 896.33C1413.54 889.665 1414.51 880.855 1411.13 873.276L1312.71 652.211C1309.34 644.632 1302.14 639.457 1293.88 638.67L974.723 608.258C969.529 607.763 964.322 609.049 959.955 611.904L659.619 808.267C654.327 811.727 650.693 817.211 649.57 823.433L602.02 1086.91Z" stroke="url(#paint25_linear_173_3572)" stroke-opacity="0.4" style="" stroke-width="4"/>
<path id="Polygon 1_42" opacity="0.391304" d="M576.799 1064.48C574.668 1073.64 578.328 1083.17 586.04 1088.55L803.74 1240.43C808.935 1244.06 815.395 1245.38 821.595 1244.09L1168.66 1171.72C1173.79 1170.65 1178.4 1167.86 1181.73 1163.81L1383.16 918.893C1388.42 912.498 1389.84 903.77 1386.87 896.041L1300.75 671.682C1297.78 663.952 1290.89 658.414 1282.7 657.181L969.124 609.952C963.942 609.172 958.649 610.184 954.121 612.822L647.777 791.276C642.304 794.464 638.388 799.768 636.953 805.937L576.799 1064.48Z" stroke="url(#paint26_linear_173_3572)" stroke-opacity="0.4" style="" stroke-width="4"/>
<path id="Polygon 1_41" opacity="0.405797" d="M552.859 1042.14C550.283 1051.15 553.424 1060.81 560.8 1066.58L768.068 1228.73C773.067 1232.64 779.459 1234.31 785.732 1233.35L1131.9 1180.18C1137.1 1179.38 1141.88 1176.82 1145.42 1172.93L1356.53 941.002C1362.09 934.892 1363.95 926.269 1361.4 918.412L1287.65 691.435C1285.1 683.578 1278.52 677.693 1270.43 676.019L963.316 612.476C958.161 611.409 952.797 612.143 948.118 614.555L636.809 775.013C631.168 777.921 626.979 783.03 625.233 789.132L552.859 1042.14Z" stroke="url(#paint27_linear_173_3572)" stroke-opacity="0.4" style="" stroke-width="4"/>
<path id="Polygon 1_40" opacity="0.42029" d="M530.18 1019.98C527.171 1028.8 529.789 1038.57 536.808 1044.71L733.174 1216.46C737.96 1220.64 744.266 1222.66 750.594 1222.03L1094.82 1187.76C1100.08 1187.24 1105 1184.92 1108.75 1181.19L1328.75 962.594C1334.6 956.783 1336.89 948.288 1334.76 940.325L1273.42 711.404C1271.28 703.442 1265.05 697.23 1257.08 695.122L957.259 615.811C952.147 614.459 946.725 614.909 941.907 617.086L626.666 759.522C620.871 762.141 616.419 767.041 614.366 773.06L530.18 1019.98Z" stroke="url(#paint28_linear_173_3572)" stroke-opacity="0.4" style="" stroke-width="4"/>
<path id="Polygon 1_39" opacity="0.434783" d="M508.738 998.051C505.307 1006.68 507.4 1016.52 514.043 1023.01L699.078 1203.65C703.637 1208.1 709.838 1210.46 716.203 1210.17L1057.46 1194.45C1062.77 1194.21 1067.83 1192.13 1071.78 1188.58L1299.86 983.607C1305.97 978.11 1308.69 969.764 1306.98 961.719L1258.05 731.525C1256.34 723.48 1250.46 716.96 1242.64 714.426L950.91 619.937C945.856 618.301 940.392 618.463 935.445 620.399L617.295 744.844C611.361 747.165 606.656 751.843 604.301 757.764L508.738 998.051Z" stroke="url(#paint29_linear_173_3572)" stroke-opacity="0.4" style="" stroke-width="4"/>
<path id="Polygon 1_38" opacity="0.449275" d="M488.508 976.43C484.668 984.838 486.234 994.728 492.484 1001.54L665.801 1190.37C670.118 1195.07 676.196 1197.77 682.58 1197.82L1019.89 1200.24C1025.23 1200.28 1030.41 1198.46 1034.55 1195.1L1269.89 1003.99C1276.26 998.813 1279.39 990.638 1278.11 982.533L1241.55 751.732C1240.27 743.627 1234.77 736.82 1227.11 733.869L944.232 624.833C939.252 622.914 933.759 622.786 928.695 624.471L608.646 731.015C602.588 733.031 597.642 737.475 594.989 743.282L488.508 976.43Z" stroke="url(#paint30_linear_173_3572)" stroke-opacity="0.4" style="" stroke-width="4"/>
<path id="Polygon 1_37" opacity="0.463768" d="M469.454 955.18C465.219 963.349 466.26 973.256 472.101 980.366L633.357 1176.66C637.418 1181.6 643.354 1184.63 649.74 1185.02L982.143 1205.13C987.496 1205.46 992.794 1203.9 997.121 1200.73L1238.91 1023.67C1245.51 1018.84 1249.05 1010.85 1248.19 1002.71L1223.94 771.963C1223.08 763.822 1217.96 756.749 1210.5 753.391L937.185 630.474C932.293 628.275 926.788 627.853 921.619 629.283L600.661 718.068C594.496 719.774 589.319 723.97 586.374 729.65L469.454 955.18Z" stroke="url(#paint31_linear_173_3572)" stroke-opacity="0.4" style="" stroke-width="4"/>
<path id="Polygon 1_36" opacity="0.478261" d="M451.545 934.364C446.93 942.275 447.448 952.17 452.865 959.556L601.76 1162.57C605.552 1167.74 611.328 1171.09 617.697 1171.82L944.279 1209.11C949.633 1209.72 955.032 1208.43 959.534 1205.47L1206.95 1042.62C1213.77 1038.13 1217.7 1030.36 1217.27 1022.21L1205.22 792.155C1204.79 784 1200.07 776.683 1192.81 772.93L929.733 636.834C924.946 634.358 919.442 633.641 914.181 634.809L593.287 706.035C587.029 707.424 581.634 711.362 578.404 716.899L451.545 934.364Z" stroke="url(#paint32_linear_173_3572)" stroke-opacity="0.4" style="" stroke-width="4"/>
<path id="Polygon 1_35" opacity="0.492754" d="M434.743 914.04C429.763 921.676 429.763 931.531 434.743 939.167L571.023 1148.15C574.532 1153.53 580.131 1157.2 586.465 1158.27L906.349 1212.18C911.689 1213.08 917.176 1212.07 921.843 1209.32L1174.07 1060.78C1181.09 1056.64 1185.4 1049.11 1185.4 1040.96L1185.4 812.247C1185.4 804.101 1181.09 796.563 1174.07 792.429L921.843 643.886C917.176 641.138 911.689 640.124 906.349 641.025L586.465 694.942C580.131 696.01 574.532 699.678 571.023 705.059L434.743 914.04Z" stroke="url(#paint33_linear_173_3572)" stroke-opacity="0.4" style="" stroke-width="4"/>
<path id="Polygon 1_34" opacity="0.507246" d="M419.005 894.267C413.678 901.61 413.165 911.398 417.695 919.258L541.15 1133.45C544.364 1139.03 549.769 1143 556.051 1144.41L868.402 1214.35C873.714 1215.54 879.275 1214.81 884.097 1212.28L1140.33 1078.1C1147.53 1074.33 1152.21 1067.04 1152.63 1058.93L1164.51 832.181C1164.94 824.066 1161.05 816.33 1154.29 811.828L913.481 651.6C908.95 648.585 903.495 647.274 898.088 647.902L580.137 684.813C573.743 685.555 567.952 688.943 564.172 694.154L419.005 894.267Z" stroke="url(#paint34_linear_173_3572)" stroke-opacity="0.4" style="" stroke-width="4"/>
<path id="Polygon 1_33" opacity="0.521739" d="M404.289 875.097C398.632 882.132 397.614 891.825 401.684 899.882L512.147 1118.52C515.056 1124.28 520.25 1128.55 526.461 1130.29L830.489 1215.62C835.756 1217.1 841.379 1216.65 846.346 1214.36L1105.78 1094.55C1113.14 1091.15 1118.17 1084.13 1119.01 1076.07L1142.58 851.898C1143.42 843.838 1139.97 835.927 1133.48 831.074L904.617 659.946C900.235 656.669 894.829 655.062 889.369 655.413L574.243 675.666C567.806 676.08 561.838 679.179 557.795 684.206L404.289 875.097Z" stroke="url(#paint35_linear_173_3572)" stroke-opacity="0.4" style="" stroke-width="4"/>
<path id="Polygon 1_32" opacity="0.536232" d="M390.547 856.583C384.578 863.294 383.062 872.866 386.665 881.093L484.015 1103.41C486.608 1109.33 491.574 1113.89 497.696 1115.96L792.657 1216C797.866 1217.76 803.535 1217.61 808.637 1215.55L1070.48 1110.09C1077.98 1107.07 1083.34 1100.33 1084.61 1092.35L1119.61 871.342C1120.88 863.359 1117.86 855.298 1111.66 850.11L895.22 668.891C891.003 665.36 885.66 663.457 880.16 663.528L568.722 667.52C562.258 667.603 556.127 670.402 551.831 675.233L390.547 856.583Z" stroke="url(#paint36_linear_173_3572)" stroke-opacity="0.4" style="" stroke-width="4"/>
<path id="Polygon 1_31" opacity="0.550725" d="M377.732 838.771C371.47 845.145 369.467 854.57 372.595 862.94L456.755 1088.16C459.023 1094.23 463.745 1099.06 469.761 1101.47L754.959 1215.5C760.094 1217.55 765.796 1217.69 771.022 1215.88L1034.5 1124.68C1042.12 1122.04 1047.8 1115.61 1049.47 1107.72L1095.65 890.462C1097.33 882.577 1094.76 874.391 1088.87 868.884L885.266 678.402C881.228 674.624 875.964 672.427 870.438 672.214L563.516 660.386C557.042 660.136 550.763 662.629 546.223 667.251L377.732 838.771Z" stroke="url(#paint37_linear_173_3572)" stroke-opacity="0.4" style="" stroke-width="4"/>
<path id="Polygon 1_30" opacity="0.565217" d="M365.792 821.707C359.256 827.731 356.778 836.983 359.425 845.468L430.363 1072.84C432.297 1079.03 436.761 1084.13 442.653 1086.86L717.442 1214.13C722.487 1216.47 728.208 1216.9 733.545 1215.35L997.888 1138.29C1005.6 1136.04 1011.59 1129.93 1013.67 1122.16L1070.73 909.204C1072.81 901.44 1070.69 893.153 1065.13 887.346L874.728 688.444C870.883 684.427 865.714 681.94 860.177 681.441L558.563 654.273C552.096 653.691 545.684 655.869 540.91 660.27L365.792 821.707Z" stroke="url(#paint38_linear_173_3572)" stroke-opacity="0.4" style="" stroke-width="4"/>
<path id="Polygon 1_29" opacity="0.57971" d="M354.674 805.431C347.885 811.094 344.944 820.148 347.107 828.72L404.834 1057.47C406.427 1063.78 410.617 1069.12 416.368 1072.17L680.153 1211.92C685.093 1214.54 690.817 1215.27 696.255 1213.97L960.715 1150.9C968.511 1149.04 974.777 1143.26 977.254 1135.64L1044.88 927.52C1047.35 919.897 1045.68 911.535 1040.47 905.448L863.586 698.981C859.948 694.735 854.889 691.96 849.354 691.173L553.802 649.188C547.359 648.272 540.83 650.129 535.833 654.298L354.674 805.431Z" stroke="url(#paint39_linear_173_3572)" stroke-opacity="0.4" style="" stroke-width="4"/>
<path id="Polygon 1_28" opacity="0.594203" d="M344.321 789.981C337.3 795.272 333.909 804.104 335.586 812.735L380.157 1042.12C381.401 1048.52 385.304 1054.09 390.896 1057.45L643.134 1208.88C647.955 1211.77 653.668 1212.8 659.195 1211.77L923.04 1162.49C930.896 1161.03 937.427 1155.59 940.29 1148.13L1018.12 945.363C1020.99 937.903 1019.77 929.491 1014.92 923.144L851.815 709.977C848.398 705.512 843.464 702.453 837.946 701.378L549.171 645.131C542.769 643.884 536.139 645.413 530.931 649.339L344.321 789.981Z" stroke="url(#paint40_linear_173_3572)" stroke-opacity="0.4" style="" stroke-width="4"/>
<path id="Polygon 1_27" opacity="0.608696" d="M334.677 775.39C327.444 780.301 323.621 788.889 324.811 797.55L356.321 1026.82C357.211 1033.3 360.814 1039.09 366.231 1042.75L606.432 1205.03C611.118 1208.2 616.806 1209.52 622.409 1208.76L884.932 1173.04C892.826 1171.97 899.602 1166.88 902.843 1159.6L990.515 962.69C993.755 955.412 992.998 946.975 988.514 940.39L839.398 721.395C836.216 716.721 831.423 713.383 825.935 712.019L544.61 642.101C538.266 640.525 531.551 641.722 526.143 645.394L334.677 775.39Z" stroke="url(#paint41_linear_173_3572)" stroke-opacity="0.4" style="" stroke-width="4"/>
<path id="Polygon 1_26" opacity="0.623188" d="M325.684 761.69C318.26 766.212 314.02 774.533 314.725 783.197L333.311 1011.63C333.843 1018.16 337.134 1024.15 342.359 1028.1L570.089 1200.4C574.625 1203.83 580.272 1205.46 585.939 1204.97L846.454 1182.53C854.366 1181.85 861.368 1177.13 864.973 1170.06L962.088 979.459C965.694 972.383 965.393 963.947 961.294 957.145L826.319 733.196C823.383 728.324 818.746 724.713 813.303 723.061L540.059 640.094C533.79 638.191 527.006 639.051 521.411 642.46L325.684 761.69Z" stroke="url(#paint42_linear_173_3572)" stroke-opacity="0.4" style="" stroke-width="4"/>
<path id="Polygon 1_25" opacity="0.637681" d="M317.283 748.906C309.69 753.032 305.052 761.067 305.274 769.706L311.116 996.574C311.285 1003.14 314.252 1009.32 319.269 1013.55L534.147 1195C538.519 1198.69 544.11 1200.62 549.829 1200.41L807.673 1190.96C815.585 1190.67 822.791 1186.33 826.749 1179.47L932.889 995.633C936.847 988.777 937.001 980.367 933.297 973.371L812.565 745.342C809.888 740.284 805.421 736.407 800.038 734.467L535.46 639.101C529.282 636.874 522.447 637.394 516.678 640.53L317.283 748.906Z" stroke="url(#paint43_linear_173_3572)" stroke-opacity="0.4" style="" stroke-width="4"/>
<path id="Polygon 1_24" opacity="0.652174" d="M309.413 737.061C301.673 740.786 296.655 748.514 296.399 757.1L289.713 981.708C289.517 988.287 292.15 994.635 296.944 999.145L498.644 1188.88C502.838 1192.83 508.358 1195.05 514.115 1195.13L768.654 1198.31C776.544 1198.41 783.934 1194.46 788.231 1187.84L902.959 1011.17C907.256 1004.56 907.861 996.198 904.562 989.031L798.123 757.793C795.715 752.563 791.434 748.426 786.124 746.2L530.753 639.11C524.683 636.564 517.814 636.741 511.883 639.596L309.413 737.061Z" stroke="url(#paint44_linear_173_3572)" stroke-opacity="0.4" style="" stroke-width="4"/>
<path id="Polygon 1_23" opacity="0.666667" d="M302.012 726.173C294.148 729.494 288.769 736.897 288.041 745.403L269.083 967.068C268.521 973.642 270.809 980.14 275.365 984.912L463.618 1182.06C467.619 1186.25 473.053 1188.77 478.836 1189.13L729.462 1204.59C737.311 1205.07 744.863 1201.51 749.486 1195.15L872.344 1026.05C876.966 1019.69 878.018 1011.41 875.132 1004.09L782.982 770.51C780.855 765.121 776.774 760.733 771.553 758.222L525.882 640.105C519.936 637.246 513.048 637.079 506.97 639.645L302.012 726.173Z" stroke="url(#paint45_linear_173_3572)" stroke-opacity="0.4" style="" stroke-width="4"/>
<path id="Polygon 1_22" opacity="0.681159" d="M295.02 716.26C287.053 719.171 281.335 726.232 280.143 734.631L249.205 952.694C248.276 959.241 250.21 965.872 254.514 970.893L429.104 1174.57C432.899 1179 438.233 1181.82 444.028 1182.46L690.163 1209.8C697.951 1210.66 705.644 1207.5 710.576 1201.41L841.092 1040.24C846.024 1034.15 847.515 1025.97 845.05 1018.53L767.135 783.454C765.301 777.92 761.433 773.289 756.315 770.498L520.791 642.069C514.985 638.903 508.097 638.389 501.885 640.659L295.02 716.26Z" stroke="url(#paint46_linear_173_3572)" stroke-opacity="0.4" style="" stroke-width="4"/>
<path id="Polygon 1_21" opacity="0.695652" d="M288.375 707.33C280.326 709.831 274.291 716.535 272.644 724.8L230.052 938.621C228.757 945.123 230.33 951.867 234.368 957.124L395.137 1166.44C398.712 1171.1 403.93 1174.21 409.724 1175.14L650.82 1213.94C658.529 1215.18 666.341 1212.42 671.566 1206.62L809.251 1053.7C814.476 1047.9 816.4 1039.84 814.361 1032.31L750.578 796.585C749.045 790.92 745.405 786.056 740.403 782.987L515.425 644.979C509.774 641.513 502.902 640.653 496.572 642.621L288.375 707.33Z" stroke="url(#paint47_linear_173_3572)" stroke-opacity="0.4" style="" stroke-width="4"/>
<path id="Polygon 1_20" opacity="0.710145" d="M282.014 699.392C273.907 701.483 267.576 707.814 265.485 715.921L211.601 924.886C209.941 931.321 211.146 938.159 214.905 943.639L361.748 1157.72C365.089 1162.59 370.177 1165.99 375.957 1167.21L611.497 1217.02C619.108 1218.63 627.017 1216.28 632.518 1210.78L776.872 1066.43C782.373 1060.92 784.72 1053.01 783.111 1045.4L733.308 809.863C732.085 804.084 728.686 798.996 723.815 795.654L509.732 648.812C504.252 645.053 497.414 643.848 490.979 645.508L282.014 699.392Z" stroke="url(#paint48_linear_173_3572)" stroke-opacity="0.4" style="" stroke-width="4"/>
<path id="Polygon 1_19" opacity="0.724638" d="M275.876 692.45C267.732 694.13 261.129 700.076 258.606 707.999L193.821 911.522C191.801 917.869 192.632 924.781 196.099 930.469L328.964 1148.44C332.06 1153.52 337.003 1157.2 342.755 1158.71L572.255 1219.05C579.751 1221.02 587.735 1219.09 593.494 1213.9L744.002 1078.38C749.761 1073.2 752.522 1065.46 751.345 1057.8L715.321 823.249C714.418 817.371 711.273 812.07 706.546 808.461L503.661 653.539C498.366 649.497 491.579 647.948 485.055 649.294L275.876 692.45Z" stroke="url(#paint49_linear_173_3572)" stroke-opacity="0.4" style="" stroke-width="4"/>
<path id="Polygon 1_18" opacity="0.73913" d="M269.898 686.504C261.739 687.775 254.888 693.323 251.948 701.04L176.685 898.559C174.307 904.799 174.759 911.765 177.923 917.646L296.814 1138.63C299.652 1143.9 304.434 1147.86 310.146 1149.67L533.156 1220.06C540.518 1222.39 548.555 1220.86 554.554 1216L710.692 1089.56C716.692 1084.71 719.854 1077.16 719.112 1069.48L696.621 836.705C696.045 830.743 693.166 825.242 688.597 821.37L497.161 659.132C492.067 654.814 485.347 652.924 478.749 653.952L269.898 686.504Z" stroke="url(#paint50_linear_173_3572)" stroke-opacity="0.4" style="" stroke-width="4"/>
<path id="Polygon 1_17" opacity="0.753623" d="M264.022 681.549C255.87 682.415 248.794 687.556 245.451 695.042L160.162 886.028C157.432 892.141 157.501 899.14 160.351 905.197L265.323 1128.34C267.891 1133.8 272.499 1138.03 278.156 1140.12L494.261 1220.06C501.472 1222.73 509.539 1221.62 515.759 1217.1L676.996 1099.95C683.216 1095.43 686.767 1088.1 686.459 1080.42L677.21 850.19C676.968 844.163 674.368 838.473 669.971 834.345L490.189 665.556C485.309 660.973 478.674 658.745 472.017 659.452L264.022 681.549Z" stroke="url(#paint51_linear_173_3572)" stroke-opacity="0.4" style="" stroke-width="4"/>
<path id="Polygon 1_16" opacity="0.768116" d="M258.187 677.579C250.061 678.044 242.787 682.768 239.057 690.002L144.218 873.956C141.143 879.921 140.826 886.932 143.352 893.15L234.511 1117.6C236.797 1123.23 241.217 1127.73 246.806 1130.11L455.624 1219.07C462.668 1222.08 470.744 1221.37 477.165 1217.2L642.962 1109.53C649.384 1105.36 653.309 1098.27 653.433 1090.62L657.093 863.666C657.191 857.592 654.882 851.726 650.67 847.348L482.698 672.776C478.045 667.94 471.511 665.377 464.811 665.76L258.187 677.579Z" stroke="url(#paint52_linear_173_3572)" stroke-opacity="0.4" style="" stroke-width="4"/>
<path id="Polygon 1_15" opacity="0.782609" d="M252.333 674.584C244.256 674.652 236.807 678.953 232.709 685.914L128.822 862.367C125.409 868.165 124.705 875.167 126.897 881.528L204.4 1106.47C206.393 1112.26 210.611 1117.01 216.119 1119.68L417.303 1217.13C424.165 1220.45 432.227 1220.16 438.83 1216.35L608.643 1118.31C615.246 1114.49 619.53 1107.66 620.082 1100.05L636.279 877.098C636.722 870.994 634.715 864.965 630.7 860.345L474.646 680.755C470.233 675.676 463.817 672.784 457.089 672.842L252.333 674.584Z" stroke="url(#paint53_linear_173_3572)" stroke-opacity="0.4" style="" stroke-width="4"/>
<path id="Polygon 1_14" opacity="0.797101" d="M246.404 672.548C238.396 672.227 230.797 676.098 226.35 682.766L113.939 851.284C110.196 856.896 109.104 863.867 110.954 870.354L175.005 1094.98C176.696 1100.91 180.697 1105.91 186.111 1108.86L379.351 1214.26C386.015 1217.89 394.043 1218 400.806 1214.56L574.089 1126.26C580.852 1122.82 585.479 1116.26 586.456 1108.73L614.775 890.447C615.568 884.332 613.873 878.154 610.07 873.301L465.994 689.452C461.833 684.143 455.552 680.928 448.812 680.658L246.404 672.548Z" stroke="url(#paint54_linear_173_3572)" stroke-opacity="0.4" style="" stroke-width="4"/>
<path id="Polygon 1_13" opacity="0.811594" d="M240.343 671.454C232.423 670.751 224.701 674.189 219.924 680.545L99.5328 840.729C95.4696 846.135 93.9916 853.055 95.4918 859.649L146.342 1083.17C147.72 1089.23 151.492 1094.47 156.798 1097.71L341.819 1210.48C348.271 1214.42 356.243 1214.93 363.145 1211.86L539.351 1133.41C546.253 1130.33 551.206 1124.06 552.6 1116.64L592.593 903.677C593.74 897.57 592.367 891.258 588.787 886.18L456.705 698.827C452.808 693.3 446.676 689.768 439.94 689.17L240.343 671.454Z" stroke="url(#paint55_linear_173_3572)" stroke-opacity="0.4" style="" stroke-width="4"/>
<path id="Polygon 1_12" opacity="0.826087" d="M234.098 671.282C226.285 670.205 218.465 673.207 213.379 679.235L85.5702 830.719C81.1979 835.901 79.335 842.748 80.479 849.431L118.424 1071.09C119.481 1077.26 123.009 1082.74 128.195 1086.25L304.759 1205.85C310.985 1210.07 318.88 1210.98 325.9 1208.28L504.48 1139.73C511.501 1137.04 516.76 1131.08 518.565 1123.78L569.748 916.754C571.252 910.674 570.21 904.244 566.865 898.949L446.745 708.835C443.124 703.103 437.157 699.261 430.441 698.335L234.098 671.282Z" stroke="url(#paint56_linear_173_3572)" stroke-opacity="0.4" style="" stroke-width="4"/>
<path id="Polygon 1_11" opacity="0.84058" d="M227.613 672.007C219.926 670.567 212.034 673.131 206.662 678.815L72.0127 821.27C67.3431 826.21 65.0982 832.963 65.8805 839.716L91.259 1058.78C91.9857 1065.05 95.2588 1070.75 100.311 1074.54L268.214 1200.4C274.202 1204.89 281.999 1206.18 289.117 1203.87L469.525 1145.25C476.642 1142.94 482.189 1137.31 484.395 1130.16L546.253 929.644C548.115 923.61 547.414 917.077 544.315 911.576L436.083 719.43C432.746 713.507 426.961 709.363 420.279 708.111L227.613 672.007Z" stroke="url(#paint57_linear_173_3572)" stroke-opacity="0.4" style="" stroke-width="4"/>
<path id="Polygon 1_10" opacity="0.855072" d="M220.84 673.604C213.297 671.81 205.358 673.938 199.723 679.263L58.8251 812.397C53.8711 817.078 51.2484 823.715 51.6643 830.518L64.856 1046.29C65.2445 1052.65 68.2496 1058.56 73.1558 1062.61L232.23 1194.16C237.968 1198.91 245.648 1200.58 252.84 1198.65L434.534 1149.97C441.726 1148.04 447.541 1142.75 450.137 1135.77L522.126 942.313C524.347 936.346 523.994 929.726 521.154 924.028L424.69 730.566C421.649 724.466 416.059 720.03 409.428 718.453L220.84 673.604Z" stroke="url(#paint58_linear_173_3572)" stroke-opacity="0.4" style="" stroke-width="4"/>
<path id="Polygon 1_9" opacity="0.869565" d="M213.729 676.042C206.347 673.907 198.386 675.599 192.511 680.552L45.9676 804.11C40.7432 808.515 37.7481 815.015 37.794 821.849L39.2169 1033.67C39.26 1040.09 41.9849 1046.2 46.7325 1050.52L196.845 1187.18C202.322 1192.17 209.866 1194.21 217.111 1192.67L399.554 1153.89C406.8 1152.35 412.86 1147.42 415.835 1140.64L497.383 954.73C499.962 948.85 499.966 942.16 497.394 936.277L412.54 742.194C409.803 735.932 404.423 731.213 397.858 729.313L213.729 676.042Z" stroke="url(#paint59_linear_173_3572)" stroke-opacity="0.4" style="" stroke-width="4"/>
<path id="Polygon 1_8" opacity="0.884058" d="M206.233 679.29C199.029 676.825 191.071 678.085 184.981 682.656L33.404 796.419C27.924 800.532 24.5631 806.874 24.2364 813.718L14.3446 1020.94C14.0358 1027.41 16.4687 1033.71 21.0455 1038.3L162.099 1179.51C167.305 1184.72 174.693 1187.13 181.97 1185.98L364.632 1157.04C371.908 1155.89 378.192 1151.32 381.533 1144.76L472.044 966.864C474.981 961.092 475.348 954.349 473.055 948.292L399.611 754.265C397.186 747.857 392.029 742.864 385.547 740.646L206.233 679.29Z" stroke="url(#paint60_linear_173_3572)" stroke-opacity="0.4" style="" stroke-width="4"/>
<path id="Polygon 1_7" opacity="0.898551" d="M198.313 683.312C191.301 680.531 183.371 681.364 177.091 685.543L21.0991 789.331C15.3795 793.137 11.6605 799.3 10.9597 806.134L-9.75912 1008.17C-10.4257 1014.68 -8.29606 1021.15 -3.9021 1025.99L128.028 1171.19C132.954 1176.62 140.169 1179.37 147.455 1178.6L329.814 1159.43C337.1 1158.67 343.585 1154.48 347.276 1148.15L446.133 978.687C449.426 973.043 450.162 966.265 448.159 960.046L385.886 766.728C383.78 760.189 378.861 754.934 372.475 752.4L198.313 683.312Z" stroke="url(#paint61_linear_173_3572)" stroke-opacity="0.4" style="" stroke-width="4"/>
<path id="Polygon 1_6" opacity="0.913043" d="M189.922 688.072C183.118 684.988 175.24 685.401 168.795 689.179L9.01177 782.85C3.0694 786.334 -0.998765 792.298 -2.07418 799.101L-33.1013 995.4C-34.1307 1001.91 -32.3153 1008.55 -28.116 1013.64L94.6603 1162.27C99.2988 1167.89 106.323 1170.98 113.597 1170.6L295.139 1161.08C302.413 1160.7 309.076 1156.9 313.102 1150.83L419.669 990.171C423.314 984.676 424.425 977.881 422.721 971.511L371.345 779.531C369.564 772.877 364.895 767.372 358.621 764.528L189.922 688.072Z" stroke="url(#paint62_linear_173_3572)" stroke-opacity="0.4" style="" stroke-width="4"/>
<path id="Polygon 1_5" opacity="0.927536" d="M181.025 693.53C174.442 690.159 166.64 690.159 160.057 693.53L-2.89203 776.979C-9.03943 780.128 -13.4467 785.872 -14.896 792.625L-55.6842 982.664C-57.0809 989.171 -55.5901 995.964 -51.5971 1001.29L62.0276 1152.81C66.3712 1158.6 73.1885 1162.01 80.4284 1162.01L260.654 1162.01C267.894 1162.01 274.711 1158.6 279.054 1152.81L392.679 1001.29C396.672 995.964 398.163 989.171 396.766 982.664L355.978 792.625C354.529 785.872 350.121 780.128 343.974 776.979L181.025 693.53Z" stroke="url(#paint63_linear_173_3572)" stroke-opacity="0.4" style="" stroke-width="4"/>
<path id="Polygon 1_4" opacity="0.942029" d="M171.586 699.646C165.237 696.003 157.533 695.599 150.838 698.559L-14.6506 771.718C-20.9844 774.518 -25.7193 780.023 -27.5409 786.705L-77.5175 970.009C-79.285 976.492 -78.1291 983.423 -74.3535 988.982L30.1535 1142.84C34.1961 1148.79 40.7909 1152.51 47.9759 1152.89L226.395 1162.24C233.579 1162.61 240.527 1159.61 245.169 1154.11L365.186 1012.02C369.522 1006.88 371.397 1000.11 370.316 993.479L339.774 805.955C338.661 799.12 334.527 793.15 328.521 789.703L171.586 699.646Z" stroke="url(#paint64_linear_173_3572)" stroke-opacity="0.4" style="" stroke-width="4"/>
<path id="Polygon 1_3" opacity="0.956522" d="M161.571 706.376C155.468 702.477 147.885 701.68 141.105 704.225L-26.3003 767.065C-32.801 769.505 -37.8514 774.752 -40.0423 781.341L-98.6117 957.478C-100.753 963.917 -99.9413 970.973 -96.3942 976.758L-0.940445 1132.43C2.79619 1138.52 9.15375 1142.53 16.2629 1143.28L192.4 1161.79C199.509 1162.54 206.561 1159.94 211.483 1154.76L337.217 1022.33C341.89 1017.41 344.15 1010.68 343.395 1003.93L322.726 819.469C321.953 812.569 318.104 806.387 312.253 802.648L161.571 706.376Z" stroke="url(#paint65_linear_173_3572)" stroke-opacity="0.4" style="" stroke-width="4"/>
<path id="Polygon 1_2" opacity="0.971014" d="M150.952 713.676C145.106 709.538 137.665 708.359 130.826 710.489L-37.8759 763.016C-44.5234 765.085 -49.8756 770.055 -52.432 776.531L-118.979 945.112C-121.495 951.488 -121.037 958.654 -117.729 964.657L-31.235 1121.63C-27.8083 1127.85 -21.7016 1132.13 -14.6887 1133.24L158.706 1160.71C165.719 1161.82 172.851 1159.63 178.032 1154.77L308.8 1032.21C313.801 1027.53 316.451 1020.85 316.027 1014.01L304.832 833.116C304.402 826.167 300.848 819.787 295.165 815.764L150.952 713.676Z" stroke="url(#paint66_linear_173_3572)" stroke-opacity="0.4" style="" stroke-width="4"/>
<path id="Polygon 1_1" opacity="0.985507" d="M139.703 721.501C134.122 717.14 126.844 715.593 119.973 717.307L-49.4122 759.564C-56.1855 761.254 -61.8248 765.928 -64.7414 772.27L-138.633 932.952C-141.527 939.244 -141.431 946.505 -138.372 952.719L-60.7149 1110.49C-57.6011 1116.81 -51.7579 1121.36 -44.8613 1122.83L125.346 1159.01C132.243 1160.47 139.431 1158.69 144.849 1154.18L279.962 1041.64C285.283 1037.21 288.324 1030.61 288.24 1023.69L286.092 846.842C286.007 839.862 282.757 833.298 277.256 828.999L139.703 721.501Z" stroke="url(#paint67_linear_173_3572)" stroke-opacity="0.4" style="" stroke-width="4"/>
<path id="Polygon 1" d="M127.798 729.803C122.493 725.237 115.397 723.336 108.52 724.637L-60.9439 756.702C-67.8214 758.003 -73.732 762.365 -77.0026 768.553L-157.593 921.037C-160.863 927.226 -161.138 934.567 -158.339 940.982L-89.3693 1099.06C-86.5703 1105.48 -81.0022 1110.27 -74.2413 1112.08L92.3525 1156.72C99.1135 1158.53 106.331 1157.17 111.963 1153.01L250.733 1050.59C256.364 1046.44 259.797 1039.94 260.059 1032.95L266.508 860.597C266.769 853.602 263.832 846.869 258.526 842.303L127.798 729.803Z" stroke="url(#paint68_linear_173_3572)" stroke-opacity="0.4" style="" stroke-width="4"/>
</g>
<defs>
<linearGradient id="paint0_linear_173_3572" x1="1634.91" y1="1474.24" x2="1451.03" y2="313.222" gradientUnits="userSpaceOnUse">
<stop stop-color="#E9E931" style="stop-color:#E9E931;stop-color:color(display-p3 0.9137 0.9137 0.1922);stop-opacity:1;"/>
<stop offset="0.602725" stop-color="#1C8036" style="stop-color:#1C8036;stop-color:color(display-p3 0.1098 0.5020 0.2118);stop-opacity:1;"/>
</linearGradient>
<linearGradient id="paint1_linear_173_3572" x1="1583.15" y1="1473.5" x2="1461.36" y2="314.766" gradientUnits="userSpaceOnUse">
<stop stop-color="#E9E931" style="stop-color:#E9E931;stop-color:color(display-p3 0.9137 0.9137 0.1922);stop-opacity:1;"/>
<stop offset="0.602725" stop-color="#1C8036" style="stop-color:#1C8036;stop-color:color(display-p3 0.1098 0.5020 0.2118);stop-opacity:1;"/>
</linearGradient>
<linearGradient id="paint2_linear_173_3572" x1="1531.75" y1="1471.17" x2="1471.31" y2="318.015" gradientUnits="userSpaceOnUse">
<stop stop-color="#E9E931" style="stop-color:#E9E931;stop-color:color(display-p3 0.9137 0.9137 0.1922);stop-opacity:1;"/>
<stop offset="0.602725" stop-color="#1C8036" style="stop-color:#1C8036;stop-color:color(display-p3 0.1098 0.5020 0.2118);stop-opacity:1;"/>
</linearGradient>
<linearGradient id="paint3_linear_173_3572" x1="1480.78" y1="1467.29" x2="1480.78" y2="322.931" gradientUnits="userSpaceOnUse">
<stop stop-color="#E9E931" style="stop-color:#E9E931;stop-color:color(display-p3 0.9137 0.9137 0.1922);stop-opacity:1;"/>
<stop offset="0.602725" stop-color="#1C8036" style="stop-color:#1C8036;stop-color:color(display-p3 0.1098 0.5020 0.2118);stop-opacity:1;"/>
</linearGradient>
<linearGradient id="paint4_linear_173_3572" x1="1430.34" y1="1461.9" x2="1489.69" y2="329.471" gradientUnits="userSpaceOnUse">
<stop stop-color="#E9E931" style="stop-color:#E9E931;stop-color:color(display-p3 0.9137 0.9137 0.1922);stop-opacity:1;"/>
<stop offset="0.602725" stop-color="#1C8036" style="stop-color:#1C8036;stop-color:color(display-p3 0.1098 0.5020 0.2118);stop-opacity:1;"/>
</linearGradient>
<linearGradient id="paint5_linear_173_3572" x1="1380.51" y1="1455.05" x2="1497.96" y2="337.59" gradientUnits="userSpaceOnUse">
<stop stop-color="#E9E931" style="stop-color:#E9E931;stop-color:color(display-p3 0.9137 0.9137 0.1922);stop-opacity:1;"/>
<stop offset="0.602725" stop-color="#1C8036" style="stop-color:#1C8036;stop-color:color(display-p3 0.1098 0.5020 0.2118);stop-opacity:1;"/>
</linearGradient>
<linearGradient id="paint6_linear_173_3572" x1="1331.34" y1="1446.77" x2="1505.49" y2="347.237" gradientUnits="userSpaceOnUse">
<stop stop-color="#E9E931" style="stop-color:#E9E931;stop-color:color(display-p3 0.9137 0.9137 0.1922);stop-opacity:1;"/>
<stop offset="0.602725" stop-color="#1C8036" style="stop-color:#1C8036;stop-color:color(display-p3 0.1098 0.5020 0.2118);stop-opacity:1;"/>
</linearGradient>
<linearGradient id="paint7_linear_173_3572" x1="1282.93" y1="1437.12" x2="1512.23" y2="358.358" gradientUnits="userSpaceOnUse">
<stop stop-color="#E9E931" style="stop-color:#E9E931;stop-color:color(display-p3 0.9137 0.9137 0.1922);stop-opacity:1;"/>
<stop offset="0.602725" stop-color="#1C8036" style="stop-color:#1C8036;stop-color:color(display-p3 0.1098 0.5020 0.2118);stop-opacity:1;"/>
</linearGradient>
<linearGradient id="paint8_linear_173_3572" x1="1235.33" y1="1426.15" x2="1518.08" y2="370.893" gradientUnits="userSpaceOnUse">
<stop stop-color="#E9E931" style="stop-color:#E9E931;stop-color:color(display-p3 0.9137 0.9137 0.1922);stop-opacity:1;"/>
<stop offset="0.602725" stop-color="#1C8036" style="stop-color:#1C8036;stop-color:color(display-p3 0.1098 0.5020 0.2118);stop-opacity:1;"/>
</linearGradient>
<linearGradient id="paint9_linear_173_3572" x1="1188.61" y1="1413.93" x2="1523" y2="384.781" gradientUnits="userSpaceOnUse">
<stop stop-color="#E9E931" style="stop-color:#E9E931;stop-color:color(display-p3 0.9137 0.9137 0.1922);stop-opacity:1;"/>
<stop offset="0.602725" stop-color="#1C8036" style="stop-color:#1C8036;stop-color:color(display-p3 0.1098 0.5020 0.2118);stop-opacity:1;"/>
</linearGradient>
<linearGradient id="paint10_linear_173_3572" x1="1142.82" y1="1400.51" x2="1526.9" y2="399.957" gradientUnits="userSpaceOnUse">
<stop stop-color="#E9E931" style="stop-color:#E9E931;stop-color:color(display-p3 0.9137 0.9137 0.1922);stop-opacity:1;"/>
<stop offset="0.602725" stop-color="#1C8036" style="stop-color:#1C8036;stop-color:color(display-p3 0.1098 0.5020 0.2118);stop-opacity:1;"/>
</linearGradient>
<linearGradient id="paint11_linear_173_3572" x1="1098.04" y1="1385.95" x2="1529.73" y2="416.351" gradientUnits="userSpaceOnUse">
<stop stop-color="#E9E931" style="stop-color:#E9E931;stop-color:color(display-p3 0.9137 0.9137 0.1922);stop-opacity:1;"/>
<stop offset="0.602725" stop-color="#1C8036" style="stop-color:#1C8036;stop-color:color(display-p3 0.1098 0.5020 0.2118);stop-opacity:1;"/>
</linearGradient>
<linearGradient id="paint12_linear_173_3572" x1="1054.3" y1="1370.33" x2="1531.44" y2="433.894" gradientUnits="userSpaceOnUse">
<stop stop-color="#E9E931" style="stop-color:#E9E931;stop-color:color(display-p3 0.9137 0.9137 0.1922);stop-opacity:1;"/>
<stop offset="0.602725" stop-color="#1C8036" style="stop-color:#1C8036;stop-color:color(display-p3 0.1098 0.5020 0.2118);stop-opacity:1;"/>
</linearGradient>
<linearGradient id="paint13_linear_173_3572" x1="1011.66" y1="1353.71" x2="1531.97" y2="452.511" gradientUnits="userSpaceOnUse">
<stop stop-color="#E9E931" style="stop-color:#E9E931;stop-color:color(display-p3 0.9137 0.9137 0.1922);stop-opacity:1;"/>
<stop offset="0.602725" stop-color="#1C8036" style="stop-color:#1C8036;stop-color:color(display-p3 0.1098 0.5020 0.2118);stop-opacity:1;"/>
</linearGradient>
<linearGradient id="paint14_linear_173_3572" x1="970.158" y1="1336.16" x2="1531.27" y2="472.127" gradientUnits="userSpaceOnUse">
<stop stop-color="#E9E931" style="stop-color:#E9E931;stop-color:color(display-p3 0.9137 0.9137 0.1922);stop-opacity:1;"/>
<stop offset="0.602725" stop-color="#1C8036" style="stop-color:#1C8036;stop-color:color(display-p3 0.1098 0.5020 0.2118);stop-opacity:1;"/>
</linearGradient>
<linearGradient id="paint15_linear_173_3572" x1="929.838" y1="1317.75" x2="1529.3" y2="492.663" gradientUnits="userSpaceOnUse">
<stop stop-color="#E9E931" style="stop-color:#E9E931;stop-color:color(display-p3 0.9137 0.9137 0.1922);stop-opacity:1;"/>
<stop offset="0.602725" stop-color="#1C8036" style="stop-color:#1C8036;stop-color:color(display-p3 0.1098 0.5020 0.2118);stop-opacity:1;"/>
</linearGradient>
<linearGradient id="paint16_linear_173_3572" x1="890.731" y1="1298.56" x2="1526.02" y2="514.04" gradientUnits="userSpaceOnUse">
<stop stop-color="#E9E931" style="stop-color:#E9E931;stop-color:color(display-p3 0.9137 0.9137 0.1922);stop-opacity:1;"/>
<stop offset="0.602725" stop-color="#1C8036" style="stop-color:#1C8036;stop-color:color(display-p3 0.1098 0.5020 0.2118);stop-opacity:1;"/>
</linearGradient>
<linearGradient id="paint17_linear_173_3572" x1="852.873" y1="1278.66" x2="1521.41" y2="536.177" gradientUnits="userSpaceOnUse">
<stop stop-color="#E9E931" style="stop-color:#E9E931;stop-color:color(display-p3 0.9137 0.9137 0.1922);stop-opacity:1;"/>
<stop offset="0.602725" stop-color="#1C8036" style="stop-color:#1C8036;stop-color:color(display-p3 0.1098 0.5020 0.2118);stop-opacity:1;"/>
</linearGradient>
<linearGradient id="paint18_linear_173_3572" x1="816.286" y1="1258.13" x2="1515.43" y2="558.992" gradientUnits="userSpaceOnUse">
<stop stop-color="#E9E931" style="stop-color:#E9E931;stop-color:color(display-p3 0.9137 0.9137 0.1922);stop-opacity:1;"/>
<stop offset="0.602725" stop-color="#1C8036" style="stop-color:#1C8036;stop-color:color(display-p3 0.1098 0.5020 0.2118);stop-opacity:1;"/>
</linearGradient>
<linearGradient id="paint19_linear_173_3572" x1="780.992" y1="1237.05" x2="1508.06" y2="582.401" gradientUnits="userSpaceOnUse">
<stop stop-color="#E9E931" style="stop-color:#E9E931;stop-color:color(display-p3 0.9137 0.9137 0.1922);stop-opacity:1;"/>
<stop offset="0.602725" stop-color="#1C8036" style="stop-color:#1C8036;stop-color:color(display-p3 0.1098 0.5020 0.2118);stop-opacity:1;"/>
</linearGradient>
<linearGradient id="paint20_linear_173_3572" x1="747.009" y1="1215.5" x2="1499.28" y2="606.323" gradientUnits="userSpaceOnUse">
<stop stop-color="#E9E931" style="stop-color:#E9E931;stop-color:color(display-p3 0.9137 0.9137 0.1922);stop-opacity:1;"/>
<stop offset="0.602725" stop-color="#1C8036" style="stop-color:#1C8036;stop-color:color(display-p3 0.1098 0.5020 0.2118);stop-opacity:1;"/>
</linearGradient>
<linearGradient id="paint21_linear_173_3572" x1="714.348" y1="1193.54" x2="1489.07" y2="630.672" gradientUnits="userSpaceOnUse">
<stop stop-color="#E9E931" style="stop-color:#E9E931;stop-color:color(display-p3 0.9137 0.9137 0.1922);stop-opacity:1;"/>
<stop offset="0.602725" stop-color="#1C8036" style="stop-color:#1C8036;stop-color:color(display-p3 0.1098 0.5020 0.2118);stop-opacity:1;"/>
</linearGradient>
<linearGradient id="paint22_linear_173_3572" x1="683.02" y1="1171.27" x2="1477.44" y2="655.365" gradientUnits="userSpaceOnUse">
<stop stop-color="#E9E931" style="stop-color:#E9E931;stop-color:color(display-p3 0.9137 0.9137 0.1922);stop-opacity:1;"/>
<stop offset="0.602725" stop-color="#1C8036" style="stop-color:#1C8036;stop-color:color(display-p3 0.1098 0.5020 0.2118);stop-opacity:1;"/>
</linearGradient>
<linearGradient id="paint23_linear_173_3572" x1="653.025" y1="1148.75" x2="1464.37" y2="680.319" gradientUnits="userSpaceOnUse">
<stop stop-color="#E9E931" style="stop-color:#E9E931;stop-color:color(display-p3 0.9137 0.9137 0.1922);stop-opacity:1;"/>
<stop offset="0.602725" stop-color="#1C8036" style="stop-color:#1C8036;stop-color:color(display-p3 0.1098 0.5020 0.2118);stop-opacity:1;"/>
</linearGradient>
<linearGradient id="paint24_linear_173_3572" x1="624.364" y1="1126.07" x2="1449.87" y2="705.451" gradientUnits="userSpaceOnUse">
<stop stop-color="#E9E931" style="stop-color:#E9E931;stop-color:color(display-p3 0.9137 0.9137 0.1922);stop-opacity:1;"/>
<stop offset="0.602725" stop-color="#1C8036" style="stop-color:#1C8036;stop-color:color(display-p3 0.1098 0.5020 0.2118);stop-opacity:1;"/>
</linearGradient>
<linearGradient id="paint25_linear_173_3572" x1="597.031" y1="1103.29" x2="1433.94" y2="730.679" gradientUnits="userSpaceOnUse">
<stop stop-color="#E9E931" style="stop-color:#E9E931;stop-color:color(display-p3 0.9137 0.9137 0.1922);stop-opacity:1;"/>
<stop offset="0.602725" stop-color="#1C8036" style="stop-color:#1C8036;stop-color:color(display-p3 0.1098 0.5020 0.2118);stop-opacity:1;"/>
</linearGradient>
<linearGradient id="paint26_linear_173_3572" x1="571.015" y1="1080.51" x2="1416.59" y2="755.921" gradientUnits="userSpaceOnUse">
<stop stop-color="#E9E931" style="stop-color:#E9E931;stop-color:color(display-p3 0.9137 0.9137 0.1922);stop-opacity:1;"/>
<stop offset="0.602725" stop-color="#1C8036" style="stop-color:#1C8036;stop-color:color(display-p3 0.1098 0.5020 0.2118);stop-opacity:1;"/>
</linearGradient>
<linearGradient id="paint27_linear_173_3572" x1="546.304" y1="1057.78" x2="1397.84" y2="781.1" gradientUnits="userSpaceOnUse">
<stop stop-color="#E9E931" style="stop-color:#E9E931;stop-color:color(display-p3 0.9137 0.9137 0.1922);stop-opacity:1;"/>
<stop offset="0.602725" stop-color="#1C8036" style="stop-color:#1C8036;stop-color:color(display-p3 0.1098 0.5020 0.2118);stop-opacity:1;"/>
</linearGradient>
<linearGradient id="paint28_linear_173_3572" x1="522.881" y1="1035.19" x2="1377.71" y2="806.137" gradientUnits="userSpaceOnUse">
<stop stop-color="#E9E931" style="stop-color:#E9E931;stop-color:color(display-p3 0.9137 0.9137 0.1922);stop-opacity:1;"/>
<stop offset="0.602725" stop-color="#1C8036" style="stop-color:#1C8036;stop-color:color(display-p3 0.1098 0.5020 0.2118);stop-opacity:1;"/>
</linearGradient>
<linearGradient id="paint29_linear_173_3572" x1="500.721" y1="1012.8" x2="1356.22" y2="830.955" gradientUnits="userSpaceOnUse">
<stop stop-color="#E9E931" style="stop-color:#E9E931;stop-color:color(display-p3 0.9137 0.9137 0.1922);stop-opacity:1;"/>
<stop offset="0.602725" stop-color="#1C8036" style="stop-color:#1C8036;stop-color:color(display-p3 0.1098 0.5020 0.2118);stop-opacity:1;"/>
</linearGradient>
<linearGradient id="paint30_linear_173_3572" x1="479.802" y1="990.677" x2="1333.4" y2="855.481" gradientUnits="userSpaceOnUse">
<stop stop-color="#E9E931" style="stop-color:#E9E931;stop-color:color(display-p3 0.9137 0.9137 0.1922);stop-opacity:1;"/>
<stop offset="0.602725" stop-color="#1C8036" style="stop-color:#1C8036;stop-color:color(display-p3 0.1098 0.5020 0.2118);stop-opacity:1;"/>
</linearGradient>
<linearGradient id="paint31_linear_173_3572" x1="460.09" y1="968.896" x2="1309.28" y2="879.644" gradientUnits="userSpaceOnUse">
<stop stop-color="#E9E931" style="stop-color:#E9E931;stop-color:color(display-p3 0.9137 0.9137 0.1922);stop-opacity:1;"/>
<stop offset="0.602725" stop-color="#1C8036" style="stop-color:#1C8036;stop-color:color(display-p3 0.1098 0.5020 0.2118);stop-opacity:1;"/>
</linearGradient>
<linearGradient id="paint32_linear_173_3572" x1="441.556" y1="947.518" x2="1283.89" y2="903.373" gradientUnits="userSpaceOnUse">
<stop stop-color="#E9E931" style="stop-color:#E9E931;stop-color:color(display-p3 0.9137 0.9137 0.1922);stop-opacity:1;"/>
<stop offset="0.602725" stop-color="#1C8036" style="stop-color:#1C8036;stop-color:color(display-p3 0.1098 0.5020 0.2118);stop-opacity:1;"/>
</linearGradient>
<linearGradient id="paint33_linear_173_3572" x1="424.162" y1="926.604" x2="1257.27" y2="926.604" gradientUnits="userSpaceOnUse">
<stop stop-color="#E9E931" style="stop-color:#E9E931;stop-color:color(display-p3 0.9137 0.9137 0.1922);stop-opacity:1;"/>
<stop offset="0.602725" stop-color="#1C8036" style="stop-color:#1C8036;stop-color:color(display-p3 0.1098 0.5020 0.2118);stop-opacity:1;"/>
</linearGradient>
<linearGradient id="paint34_linear_173_3572" x1="407.868" y1="906.213" x2="1229.48" y2="949.272" gradientUnits="userSpaceOnUse">
<stop stop-color="#E9E931" style="stop-color:#E9E931;stop-color:color(display-p3 0.9137 0.9137 0.1922);stop-opacity:1;"/>
<stop offset="0.602725" stop-color="#1C8036" style="stop-color:#1C8036;stop-color:color(display-p3 0.1098 0.5020 0.2118);stop-opacity:1;"/>
</linearGradient>
<linearGradient id="paint35_linear_173_3572" x1="392.632" y1="886.401" x2="1200.54" y2="971.316" gradientUnits="userSpaceOnUse">
<stop stop-color="#E9E931" style="stop-color:#E9E931;stop-color:color(display-p3 0.9137 0.9137 0.1922);stop-opacity:1;"/>
<stop offset="0.602725" stop-color="#1C8036" style="stop-color:#1C8036;stop-color:color(display-p3 0.1098 0.5020 0.2118);stop-opacity:1;"/>
</linearGradient>
<linearGradient id="paint36_linear_173_3572" x1="378.407" y1="867.223" x2="1170.52" y2="992.681" gradientUnits="userSpaceOnUse">
<stop stop-color="#E9E931" style="stop-color:#E9E931;stop-color:color(display-p3 0.9137 0.9137 0.1922);stop-opacity:1;"/>
<stop offset="0.602725" stop-color="#1C8036" style="stop-color:#1C8036;stop-color:color(display-p3 0.1098 0.5020 0.2118);stop-opacity:1;"/>
</linearGradient>
<linearGradient id="paint37_linear_173_3572" x1="365.148" y1="848.727" x2="1139.46" y2="1013.31" gradientUnits="userSpaceOnUse">
<stop stop-color="#E9E931" style="stop-color:#E9E931;stop-color:color(display-p3 0.9137 0.9137 0.1922);stop-opacity:1;"/>
<stop offset="0.602725" stop-color="#1C8036" style="stop-color:#1C8036;stop-color:color(display-p3 0.1098 0.5020 0.2118);stop-opacity:1;"/>
</linearGradient>
<linearGradient id="paint38_linear_173_3572" x1="352.803" y1="830.96" x2="1107.42" y2="1033.16" gradientUnits="userSpaceOnUse">
<stop stop-color="#E9E931" style="stop-color:#E9E931;stop-color:color(display-p3 0.9137 0.9137 0.1922);stop-opacity:1;"/>
<stop offset="0.602725" stop-color="#1C8036" style="stop-color:#1C8036;stop-color:color(display-p3 0.1098 0.5020 0.2118);stop-opacity:1;"/>
</linearGradient>
<linearGradient id="paint39_linear_173_3572" x1="341.321" y1="813.966" x2="1074.45" y2="1052.18" gradientUnits="userSpaceOnUse">
<stop stop-color="#E9E931" style="stop-color:#E9E931;stop-color:color(display-p3 0.9137 0.9137 0.1922);stop-opacity:1;"/>
<stop offset="0.602725" stop-color="#1C8036" style="stop-color:#1C8036;stop-color:color(display-p3 0.1098 0.5020 0.2118);stop-opacity:1;"/>
</linearGradient>
<linearGradient id="paint40_linear_173_3572" x1="330.644" y1="797.784" x2="1040.62" y2="1070.32" gradientUnits="userSpaceOnUse">
<stop stop-color="#E9E931" style="stop-color:#E9E931;stop-color:color(display-p3 0.9137 0.9137 0.1922);stop-opacity:1;"/>
<stop offset="0.602725" stop-color="#1C8036" style="stop-color:#1C8036;stop-color:color(display-p3 0.1098 0.5020 0.2118);stop-opacity:1;"/>
</linearGradient>
<linearGradient id="paint41_linear_173_3572" x1="320.717" y1="782.451" x2="1005.98" y2="1087.55" gradientUnits="userSpaceOnUse">
<stop stop-color="#E9E931" style="stop-color:#E9E931;stop-color:color(display-p3 0.9137 0.9137 0.1922);stop-opacity:1;"/>
<stop offset="0.602725" stop-color="#1C8036" style="stop-color:#1C8036;stop-color:color(display-p3 0.1098 0.5020 0.2118);stop-opacity:1;"/>
</linearGradient>
<linearGradient id="paint42_linear_173_3572" x1="311.482" y1="767.999" x2="970.593" y2="1103.83" gradientUnits="userSpaceOnUse">
<stop stop-color="#E9E931" style="stop-color:#E9E931;stop-color:color(display-p3 0.9137 0.9137 0.1922);stop-opacity:1;"/>
<stop offset="0.602725" stop-color="#1C8036" style="stop-color:#1C8036;stop-color:color(display-p3 0.1098 0.5020 0.2118);stop-opacity:1;"/>
</linearGradient>
<linearGradient id="paint43_linear_173_3572" x1="302.881" y1="754.457" x2="934.527" y2="1119.14" gradientUnits="userSpaceOnUse">
<stop stop-color="#E9E931" style="stop-color:#E9E931;stop-color:color(display-p3 0.9137 0.9137 0.1922);stop-opacity:1;"/>
<stop offset="0.602725" stop-color="#1C8036" style="stop-color:#1C8036;stop-color:color(display-p3 0.1098 0.5020 0.2118);stop-opacity:1;"/>
</linearGradient>
<linearGradient id="paint44_linear_173_3572" x1="294.852" y1="741.85" x2="897.846" y2="1133.44" gradientUnits="userSpaceOnUse">
<stop stop-color="#E9E931" style="stop-color:#E9E931;stop-color:color(display-p3 0.9137 0.9137 0.1922);stop-opacity:1;"/>
<stop offset="0.602725" stop-color="#1C8036" style="stop-color:#1C8036;stop-color:color(display-p3 0.1098 0.5020 0.2118);stop-opacity:1;"/>
</linearGradient>
<linearGradient id="paint45_linear_173_3572" x1="287.334" y1="730.199" x2="860.614" y2="1146.71" gradientUnits="userSpaceOnUse">
<stop stop-color="#E9E931" style="stop-color:#E9E931;stop-color:color(display-p3 0.9137 0.9137 0.1922);stop-opacity:1;"/>
<stop offset="0.602725" stop-color="#1C8036" style="stop-color:#1C8036;stop-color:color(display-p3 0.1098 0.5020 0.2118);stop-opacity:1;"/>
</linearGradient>
<linearGradient id="paint46_linear_173_3572" x1="280.267" y1="719.522" x2="822.899" y2="1158.94" gradientUnits="userSpaceOnUse">
<stop stop-color="#E9E931" style="stop-color:#E9E931;stop-color:color(display-p3 0.9137 0.9137 0.1922);stop-opacity:1;"/>
<stop offset="0.602725" stop-color="#1C8036" style="stop-color:#1C8036;stop-color:color(display-p3 0.1098 0.5020 0.2118);stop-opacity:1;"/>
</linearGradient>
<linearGradient id="paint47_linear_173_3572" x1="273.586" y1="709.832" x2="784.768" y2="1170.1" gradientUnits="userSpaceOnUse">
<stop stop-color="#E9E931" style="stop-color:#E9E931;stop-color:color(display-p3 0.9137 0.9137 0.1922);stop-opacity:1;"/>
<stop offset="0.602725" stop-color="#1C8036" style="stop-color:#1C8036;stop-color:color(display-p3 0.1098 0.5020 0.2118);stop-opacity:1;"/>
</linearGradient>
<linearGradient id="paint48_linear_173_3572" x1="267.232" y1="701.139" x2="746.288" y2="1180.19" gradientUnits="userSpaceOnUse">
<stop stop-color="#E9E931" style="stop-color:#E9E931;stop-color:color(display-p3 0.9137 0.9137 0.1922);stop-opacity:1;"/>
<stop offset="0.602725" stop-color="#1C8036" style="stop-color:#1C8036;stop-color:color(display-p3 0.1098 0.5020 0.2118);stop-opacity:1;"/>
</linearGradient>
<linearGradient id="paint49_linear_173_3572" x1="261.139" y1="693.448" x2="707.525" y2="1189.21" gradientUnits="userSpaceOnUse">
<stop stop-color="#E9E931" style="stop-color:#E9E931;stop-color:color(display-p3 0.9137 0.9137 0.1922);stop-opacity:1;"/>
<stop offset="0.602725" stop-color="#1C8036" style="stop-color:#1C8036;stop-color:color(display-p3 0.1098 0.5020 0.2118);stop-opacity:1;"/>
</linearGradient>
<linearGradient id="paint50_linear_173_3572" x1="255.247" y1="686.763" x2="668.546" y2="1197.14" gradientUnits="userSpaceOnUse">
<stop stop-color="#E9E931" style="stop-color:#E9E931;stop-color:color(display-p3 0.9137 0.9137 0.1922);stop-opacity:1;"/>
<stop offset="0.602725" stop-color="#1C8036" style="stop-color:#1C8036;stop-color:color(display-p3 0.1098 0.5020 0.2118);stop-opacity:1;"/>
</linearGradient>
<linearGradient id="paint51_linear_173_3572" x1="249.495" y1="681.081" x2="629.418" y2="1204" gradientUnits="userSpaceOnUse">
<stop stop-color="#E9E931" style="stop-color:#E9E931;stop-color:color(display-p3 0.9137 0.9137 0.1922);stop-opacity:1;"/>
<stop offset="0.602725" stop-color="#1C8036" style="stop-color:#1C8036;stop-color:color(display-p3 0.1098 0.5020 0.2118);stop-opacity:1;"/>
</linearGradient>
<linearGradient id="paint52_linear_173_3572" x1="243.821" y1="676.398" x2="590.204" y2="1209.78" gradientUnits="userSpaceOnUse">
<stop stop-color="#E9E931" style="stop-color:#E9E931;stop-color:color(display-p3 0.9137 0.9137 0.1922);stop-opacity:1;"/>
<stop offset="0.602725" stop-color="#1C8036" style="stop-color:#1C8036;stop-color:color(display-p3 0.1098 0.5020 0.2118);stop-opacity:1;"/>
</linearGradient>
<linearGradient id="paint53_linear_173_3572" x1="238.165" y1="672.704" x2="550.971" y2="1214.5" gradientUnits="userSpaceOnUse">
<stop stop-color="#E9E931" style="stop-color:#E9E931;stop-color:color(display-p3 0.9137 0.9137 0.1922);stop-opacity:1;"/>
<stop offset="0.602725" stop-color="#1C8036" style="stop-color:#1C8036;stop-color:color(display-p3 0.1098 0.5020 0.2118);stop-opacity:1;"/>
</linearGradient>
<linearGradient id="paint54_linear_173_3572" x1="232.469" y1="669.988" x2="511.781" y2="1218.17" gradientUnits="userSpaceOnUse">
<stop stop-color="#E9E931" style="stop-color:#E9E931;stop-color:color(display-p3 0.9137 0.9137 0.1922);stop-opacity:1;"/>
<stop offset="0.602725" stop-color="#1C8036" style="stop-color:#1C8036;stop-color:color(display-p3 0.1098 0.5020 0.2118);stop-opacity:1;"/>
</linearGradient>
<linearGradient id="paint55_linear_173_3572" x1="226.675" y1="668.233" x2="472.695" y2="1220.8" gradientUnits="userSpaceOnUse">
<stop stop-color="#E9E931" style="stop-color:#E9E931;stop-color:color(display-p3 0.9137 0.9137 0.1922);stop-opacity:1;"/>
<stop offset="0.602725" stop-color="#1C8036" style="stop-color:#1C8036;stop-color:color(display-p3 0.1098 0.5020 0.2118);stop-opacity:1;"/>
</linearGradient>
<linearGradient id="paint56_linear_173_3572" x1="220.73" y1="667.421" x2="433.775" y2="1222.42" gradientUnits="userSpaceOnUse">
<stop stop-color="#E9E931" style="stop-color:#E9E931;stop-color:color(display-p3 0.9137 0.9137 0.1922);stop-opacity:1;"/>
<stop offset="0.602725" stop-color="#1C8036" style="stop-color:#1C8036;stop-color:color(display-p3 0.1098 0.5020 0.2118);stop-opacity:1;"/>
</linearGradient>
<linearGradient id="paint57_linear_173_3572" x1="214.577" y1="667.53" x2="395.077" y2="1223.05" gradientUnits="userSpaceOnUse">
<stop stop-color="#E9E931" style="stop-color:#E9E931;stop-color:color(display-p3 0.9137 0.9137 0.1922);stop-opacity:1;"/>
<stop offset="0.602725" stop-color="#1C8036" style="stop-color:#1C8036;stop-color:color(display-p3 0.1098 0.5020 0.2118);stop-opacity:1;"/>
</linearGradient>
<linearGradient id="paint58_linear_173_3572" x1="208.165" y1="668.534" x2="356.659" y2="1222.72" gradientUnits="userSpaceOnUse">
<stop stop-color="#E9E931" style="stop-color:#E9E931;stop-color:color(display-p3 0.9137 0.9137 0.1922);stop-opacity:1;"/>
<stop offset="0.602725" stop-color="#1C8036" style="stop-color:#1C8036;stop-color:color(display-p3 0.1098 0.5020 0.2118);stop-opacity:1;"/>
</linearGradient>
<linearGradient id="paint59_linear_173_3572" x1="201.443" y1="670.406" x2="318.572" y2="1221.46" gradientUnits="userSpaceOnUse">
<stop stop-color="#E9E931" style="stop-color:#E9E931;stop-color:color(display-p3 0.9137 0.9137 0.1922);stop-opacity:1;"/>
<stop offset="0.602725" stop-color="#1C8036" style="stop-color:#1C8036;stop-color:color(display-p3 0.1098 0.5020 0.2118);stop-opacity:1;"/>
</linearGradient>
<linearGradient id="paint60_linear_173_3572" x1="194.363" y1="673.114" x2="280.869" y2="1219.29" gradientUnits="userSpaceOnUse">
<stop stop-color="#E9E931" style="stop-color:#E9E931;stop-color:color(display-p3 0.9137 0.9137 0.1922);stop-opacity:1;"/>
<stop offset="0.602725" stop-color="#1C8036" style="stop-color:#1C8036;stop-color:color(display-p3 0.1098 0.5020 0.2118);stop-opacity:1;"/>
</linearGradient>
<linearGradient id="paint61_linear_173_3572" x1="186.882" y1="676.626" x2="243.6" y2="1216.27" gradientUnits="userSpaceOnUse">
<stop stop-color="#E9E931" style="stop-color:#E9E931;stop-color:color(display-p3 0.9137 0.9137 0.1922);stop-opacity:1;"/>
<stop offset="0.602725" stop-color="#1C8036" style="stop-color:#1C8036;stop-color:color(display-p3 0.1098 0.5020 0.2118);stop-opacity:1;"/>
</linearGradient>
<linearGradient id="paint62_linear_173_3572" x1="178.954" y1="680.905" x2="206.809" y2="1212.41" gradientUnits="userSpaceOnUse">
<stop stop-color="#E9E931" style="stop-color:#E9E931;stop-color:color(display-p3 0.9137 0.9137 0.1922);stop-opacity:1;"/>
<stop offset="0.602725" stop-color="#1C8036" style="stop-color:#1C8036;stop-color:color(display-p3 0.1098 0.5020 0.2118);stop-opacity:1;"/>
</linearGradient>
<linearGradient id="paint63_linear_173_3572" x1="170.541" y1="685.914" x2="170.541" y2="1207.78" gradientUnits="userSpaceOnUse">
<stop stop-color="#E9E931" style="stop-color:#E9E931;stop-color:color(display-p3 0.9137 0.9137 0.1922);stop-opacity:1;"/>
<stop offset="0.602725" stop-color="#1C8036" style="stop-color:#1C8036;stop-color:color(display-p3 0.1098 0.5020 0.2118);stop-opacity:1;"/>
</linearGradient>
<linearGradient id="paint64_linear_173_3572" x1="161.605" y1="691.612" x2="134.835" y2="1202.4" gradientUnits="userSpaceOnUse">
<stop stop-color="#E9E931" style="stop-color:#E9E931;stop-color:color(display-p3 0.9137 0.9137 0.1922);stop-opacity:1;"/>
<stop offset="0.602725" stop-color="#1C8036" style="stop-color:#1C8036;stop-color:color(display-p3 0.1098 0.5020 0.2118);stop-opacity:1;"/>
</linearGradient>
<linearGradient id="paint65_linear_173_3572" x1="152.11" y1="697.958" x2="99.7291" y2="1196.33" gradientUnits="userSpaceOnUse">
<stop stop-color="#E9E931" style="stop-color:#E9E931;stop-color:color(display-p3 0.9137 0.9137 0.1922);stop-opacity:1;"/>
<stop offset="0.602725" stop-color="#1C8036" style="stop-color:#1C8036;stop-color:color(display-p3 0.1098 0.5020 0.2118);stop-opacity:1;"/>
</linearGradient>
<linearGradient id="paint66_linear_173_3572" x1="142.025" y1="704.907" x2="65.2571" y2="1189.6" gradientUnits="userSpaceOnUse">
<stop stop-color="#E9E931" style="stop-color:#E9E931;stop-color:color(display-p3 0.9137 0.9137 0.1922);stop-opacity:1;"/>
<stop offset="0.602725" stop-color="#1C8036" style="stop-color:#1C8036;stop-color:color(display-p3 0.1098 0.5020 0.2118);stop-opacity:1;"/>
</linearGradient>
<linearGradient id="paint67_linear_173_3572" x1="131.323" y1="712.415" x2="31.4504" y2="1182.28" gradientUnits="userSpaceOnUse">
<stop stop-color="#E9E931" style="stop-color:#E9E931;stop-color:color(display-p3 0.9137 0.9137 0.1922);stop-opacity:1;"/>
<stop offset="0.602725" stop-color="#1C8036" style="stop-color:#1C8036;stop-color:color(display-p3 0.1098 0.5020 0.2118);stop-opacity:1;"/>
</linearGradient>
<linearGradient id="paint68_linear_173_3572" x1="119.978" y1="720.434" x2="-1.66415" y2="1174.41" gradientUnits="userSpaceOnUse">
<stop stop-color="#E9E931" style="stop-color:#E9E931;stop-color:color(display-p3 0.9137 0.9137 0.1922);stop-opacity:1;"/>
<stop offset="0.602725" stop-color="#1C8036" style="stop-color:#1C8036;stop-color:color(display-p3 0.1098 0.5020 0.2118);stop-opacity:1;"/>
</linearGradient>
</defs>
</svg>
