<svg width="15" height="15" viewBox="0 0 15 15" fill="none" xmlns="http://www.w3.org/2000/svg">
<path fill-rule="evenodd" clip-rule="evenodd" d="M11.9231 10.3007C13.0544 10.3007 13.9744 11.1438 13.9744 12.1805C13.9744 13.2171 13.0544 14.0601 11.9231 14.0601C10.7918 14.0601 9.8718 13.2171 9.8718 12.1805C9.8718 12.016 9.90257 11.859 9.94564 11.7068C10.0349 11.3947 10.2062 11.1128 10.4431 10.8853C10.8164 10.5273 11.3405 10.3007 11.9231 10.3007ZM3.07692 5.6015C3.65334 5.6015 4.1723 5.82142 4.54563 6.17293C4.78462 6.3985 4.9559 6.67951 5.0482 6.99154C5.09538 7.14849 5.12821 7.31015 5.12821 7.4812C5.12821 7.67011 5.08821 7.85056 5.03077 8.02255C4.92923 8.33083 4.74975 8.60809 4.50256 8.82801C4.13333 9.15602 3.6318 9.3609 3.07692 9.3609C1.94565 9.3609 1.02564 8.51785 1.02564 7.4812C1.02564 6.44455 1.94565 5.6015 3.07692 5.6015ZM11.9231 0.939852C13.0544 0.939852 13.9744 1.7829 13.9744 2.81955C13.9744 3.8562 13.0544 4.69925 11.9231 4.69925C11.3477 4.69925 10.8298 4.48027 10.4574 4.13064C10.2174 3.90508 10.0451 3.62406 9.95282 3.31203C9.90565 3.15414 9.8718 2.99154 9.8718 2.81955C9.8718 1.7829 10.7918 0.939852 11.9231 0.939852ZM11.9231 9.3609C10.961 9.3609 10.1108 9.77538 9.54667 10.4117L5.93744 8.50187C6.07282 8.1842 6.15385 7.84209 6.15385 7.4812C6.15385 7.13909 6.07693 6.81578 5.95487 6.51221L9.56103 4.60338C10.1262 5.23026 10.9692 5.63909 11.9231 5.63909C13.6195 5.63909 15 4.37405 15 2.81954C15 1.26504 13.6195 0 11.9231 0C10.2267 0 8.84616 1.26504 8.84616 2.81955C8.84616 3.16259 8.92308 3.48778 9.04616 3.79135L5.44102 5.69924C4.87692 5.07143 4.03283 4.66166 3.07692 4.66166C1.38051 4.66166 0 5.9267 0 7.4812C0 9.03571 1.38051 10.3007 3.07692 10.3007C4.01128 10.3007 4.84 9.90884 5.40411 9.30451L9.03898 11.2274C8.92103 11.5273 8.84616 11.8449 8.84616 12.1805C8.84616 13.735 10.2267 15 11.9231 15C13.6195 15 15 13.735 15 12.1805C15 10.6259 13.6195 9.3609 11.9231 9.3609Z" fill="#8A98A4"/>
</svg>
